<svg width="125" height="30" viewBox="0 0 125 30" fill="none" xmlns="http://www.w3.org/2000/svg">
<path d="M27.52 10.25C27.88 10.25 28 10.38 28 10.73V18.65H32.07C32.42 18.65 32.55 18.78 32.55 19.13V19.83C32.55 20.18 32.42 20.31 32.07 20.31H26.71C26.36 20.31 26.22 20.18 26.22 19.83V10.73C26.22 10.38 26.36 10.25 26.71 10.25H27.52Z" fill="white" stroke="white"/>
<path d="M36.1 13.74C36.1 11.43 37.56 10.04 40.1 10.04C42.64 10.04 44.1 11.43 44.1 13.74V16.82C44.1 19.13 42.63 20.52 40.1 20.52C37.57 20.52 36.1 19.13 36.1 16.82V13.74ZM42.42 13.74C42.42 12.44 41.61 11.74 40.15 11.74C38.69 11.74 37.89 12.45 37.89 13.74V16.84C37.89 18.15 38.69 18.84 40.15 18.84C41.61 18.84 42.42 18.12 42.42 16.84V13.74Z" fill="white" stroke="white"/>
<path d="M56.01 14.8C56.4 14.8 56.49 14.93 56.49 15.28V17.18C56.5006 17.6275 56.4109 18.0718 56.2275 18.4801C56.044 18.8885 55.7716 19.2506 55.43 19.54C54.5817 20.2155 53.5121 20.5506 52.43 20.48C49.84 20.48 48.43 19.09 48.43 16.78V13.68C48.43 11.4 49.89 10 52.43 10C54.43 10 55.73 10.79 56.28 12.37C56.3108 12.4294 56.3273 12.4951 56.3282 12.5619C56.3291 12.6288 56.3144 12.695 56.2853 12.7551C56.2562 12.8153 56.2134 12.8679 56.1604 12.9087C56.1074 12.9494 56.0456 12.9773 55.98 12.99L55.2 13.26C54.86 13.38 54.72 13.31 54.6 12.96C54.4343 12.5329 54.131 12.1731 53.738 11.9377C53.345 11.7023 52.8848 11.6045 52.43 11.66C50.96 11.66 50.16 12.37 50.16 13.66V16.84C50.16 18.15 50.97 18.84 52.43 18.84C53.89 18.84 54.79 18.17 54.79 17.19V16.45H52.62C52.26 16.45 52.13 16.31 52.13 15.96V15.28C52.13 14.93 52.26 14.8 52.62 14.8H56.01Z" fill="white" stroke="white"/>
<path d="M60.62 13.74C60.62 11.43 62.08 10.04 64.62 10.04C67.16 10.04 68.62 11.43 68.62 13.74V16.82C68.62 19.13 67.15 20.52 64.62 20.52C62.09 20.52 60.62 19.13 60.62 16.82V13.74ZM66.93 13.74C66.93 12.44 66.12 11.74 64.67 11.74C63.22 11.74 62.4 12.45 62.4 13.74V16.84C62.4 18.15 63.21 18.84 64.67 18.84C66.13 18.84 66.93 18.12 66.93 16.84V13.74Z" fill="white" stroke="white"/>
<path d="M73.33 10.54C73.33 10.32 73.4 10.25 73.62 10.25H74.08C74.3 10.25 74.35 10.32 74.35 10.54V20.02C74.35 20.24 74.35 20.31 74.08 20.31H73.62C73.4 20.31 73.33 20.24 73.33 20.02V10.54Z" fill="white" stroke="white"/>
<path d="M83.46 10.25C84.2928 10.25 85.0914 10.5808 85.6803 11.1697C86.2692 11.7585 86.6 12.5572 86.6 13.39C86.6 14.2228 86.2692 15.0215 85.6803 15.6103C85.0914 16.1992 84.2928 16.53 83.46 16.53H80.46V20.02C80.46 20.24 80.41 20.31 80.2 20.31H79.73C79.52 20.31 79.44 20.24 79.44 20.02V10.54C79.44 10.32 79.52 10.25 79.73 10.25H83.46ZM83.37 15.54C83.6563 15.54 83.9398 15.4836 84.2043 15.3741C84.4687 15.2645 84.7091 15.1039 84.9115 14.9015C85.1139 14.6991 85.2745 14.4587 85.3841 14.1943C85.4936 13.9298 85.55 13.6463 85.55 13.36C85.55 13.0737 85.4936 12.7902 85.3841 12.5257C85.2745 12.2613 85.1139 12.0209 84.9115 11.8185C84.7091 11.6161 84.4687 11.4555 84.2043 11.3459C83.9398 11.2364 83.6563 11.18 83.37 11.18H80.37V15.54H83.37Z" fill="white" stroke="white"/>
<path d="M94.41 10.0501C95.1821 9.96491 95.961 10.131 96.6312 10.5237C97.301 10.9165 97.827 11.5149 98.13 12.2301C98.21 12.3901 98.13 12.5201 97.97 12.6001L97.53 12.8001C97.35 12.8701 97.28 12.8601 97.17 12.6701C96.9434 12.1393 96.5539 11.6943 96.0577 11.3995C95.5616 11.1047 94.9845 10.9753 94.41 11.0301C92.72 11.0301 91.8 11.7001 91.8 12.9001C91.7902 13.2668 91.9133 13.6248 92.1468 13.9078C92.3802 14.1908 92.7081 14.3799 93.07 14.4401C93.6078 14.6155 94.1655 14.723 94.73 14.7601C95.4133 14.7965 96.0874 14.9347 96.73 15.1701C97.223 15.326 97.647 15.6466 97.931 16.0782C98.215 16.5098 98.342 17.026 98.29 17.5401C98.29 19.4101 96.93 20.5401 94.43 20.5401C93.61 20.6339 92.7826 20.4439 92.0857 20.0017C91.3888 19.5596 90.8644 18.8919 90.6 18.1101C90.5823 18.0745 90.5728 18.0354 90.572 17.9956C90.5712 17.9558 90.5793 17.9164 90.5955 17.8801C90.6117 17.8438 90.6358 17.8115 90.666 17.7856C90.6961 17.7596 90.7316 17.7407 90.77 17.7301L91.21 17.5701C91.2446 17.5559 91.2819 17.5491 91.3193 17.5501C91.3567 17.5511 91.3935 17.5599 91.4274 17.5759C91.4612 17.5919 91.4914 17.6147 91.5159 17.643C91.5405 17.6713 91.5589 17.7043 91.57 17.7401C91.7937 18.305 92.1915 18.784 92.7057 19.1077C93.2199 19.4313 93.8239 19.5828 94.43 19.5401C96.32 19.5401 97.25 18.8801 97.25 17.5401C97.268 17.1879 97.16 16.8408 96.9454 16.5606C96.7312 16.2805 96.4245 16.0854 96.08 16.0101C95.5626 15.8558 95.029 15.7618 94.49 15.7301L93.41 15.5901C93.072 15.5184 92.7382 15.4282 92.41 15.3201C92.0858 15.2222 91.7836 15.0626 91.52 14.8501C91.2547 14.6099 91.0456 14.3143 90.9073 13.9842C90.7691 13.6541 90.7051 13.2977 90.72 12.9401C90.79 11.1901 92.1 10.0501 94.41 10.0501Z" fill="white" stroke="white"/>
<path d="M103.68 16.89C103.722 17.5972 104.033 18.2615 104.549 18.7472C105.065 19.2329 105.747 19.5033 106.455 19.5033C107.163 19.5033 107.845 19.2329 108.361 18.7472C108.877 18.2615 109.187 17.5972 109.23 16.89V10.54C109.23 10.32 109.3 10.25 109.52 10.25H109.98C110.2 10.25 110.27 10.32 110.27 10.54V16.88C110.27 19.15 108.93 20.52 106.46 20.52C103.99 20.52 102.65 19.15 102.65 16.88V10.54C102.65 10.32 102.72 10.25 102.93 10.25H103.4C103.61 10.25 103.68 10.32 103.68 10.54V16.89Z" fill="white" stroke="white"/>
<path d="M124.07 10.2498C124.29 10.2498 124.36 10.3198 124.36 10.5398V20.0198C124.36 20.2398 124.29 20.3098 124.07 20.3098H123.65C123.44 20.3098 123.37 20.2398 123.37 20.0198V14.2498C123.37 13.4103 123.427 12.5717 123.54 11.7398H123.48C123.168 12.5005 122.803 13.2389 122.39 13.9498L120.24 17.7398C120.214 17.8056 120.168 17.8618 120.109 17.9011C120.05 17.9403 119.981 17.9608 119.91 17.9598H119.63C119.558 17.9602 119.488 17.9395 119.427 17.9005C119.367 17.8614 119.319 17.8056 119.29 17.7398L117.11 13.9098C116.723 13.2091 116.389 12.4804 116.11 11.7298H116.05C116.152 12.5693 116.206 13.4141 116.21 14.2598V20.0198C116.21 20.2398 116.14 20.3098 115.92 20.3098H115.53C115.31 20.3098 115.24 20.2398 115.24 20.0198V10.5398C115.24 10.3198 115.31 10.2498 115.53 10.2498H115.89C115.972 10.2422 116.055 10.2601 116.126 10.3013C116.198 10.3425 116.255 10.4049 116.29 10.4798L119.79 16.6998L123.27 10.5398C123.38 10.3298 123.44 10.2998 123.66 10.2998L124.07 10.2498Z" fill="white" stroke="white"/>
<path d="M9.73 18.79V26.02C9.73 26.2972 9.6199 26.563 9.4239 26.7589C9.228 26.9549 8.9622 27.065 8.685 27.065C8.4079 27.065 8.1421 26.9549 7.9461 26.7589C7.7501 26.563 7.64 26.2972 7.64 26.02V18.8C7.931 19.0125 8.2798 19.1311 8.64 19.14C9.0326 19.1512 9.4173 19.0277 9.73 18.79ZM18.63 16.7C18.3648 16.7 18.1104 16.8054 17.9229 16.9929C17.7354 17.1804 17.63 17.4348 17.63 17.7V18.96C17.63 19.2372 17.7401 19.503 17.9361 19.6989C18.132 19.8949 18.3978 20.005 18.675 20.005C18.9522 20.005 19.218 19.8949 19.4139 19.6989C19.6099 19.503 19.72 19.2372 19.72 18.96V17.75C19.7278 17.6066 19.7046 17.4632 19.652 17.3296C19.5994 17.196 19.5187 17.0752 19.4152 16.9756C19.3118 16.876 19.1881 16.7998 19.0527 16.7522C18.9172 16.7047 18.773 16.6869 18.63 16.7ZM5.37 21.53C5.01017 21.5192 4.66183 21.4008 4.37 21.19V28.44C4.37 28.7185 4.48062 28.9856 4.67754 29.1825C4.87445 29.3794 5.14152 29.49 5.42 29.49C5.69848 29.49 5.96555 29.3794 6.16246 29.1825C6.35938 28.9856 6.47 28.7185 6.47 28.44V21.24C6.14345 21.4511 5.75816 21.5527 5.37 21.53ZM15.37 14.53C15.2345 14.5232 15.0991 14.5441 14.9719 14.5913C14.8448 14.6385 14.7286 14.7111 14.6303 14.8046C14.5321 14.8982 14.454 15.0107 14.4006 15.1354C14.3473 15.2601 14.3198 15.3944 14.32 15.53V21.1C14.32 21.3785 14.4306 21.6456 14.6275 21.8425C14.8245 22.0394 15.0915 22.15 15.37 22.15C15.6485 22.15 15.9156 22.0394 16.1125 21.8425C16.3094 21.6456 16.42 21.3785 16.42 21.1V15.6C16.428 15.4557 16.4046 15.3114 16.3514 15.177C16.2982 15.0426 16.2166 14.9213 16.112 14.8215C16.0074 14.7217 15.8825 14.6457 15.7458 14.5989C15.6091 14.552 15.4638 14.5353 15.32 14.55L15.37 14.53ZM12.05 16.67C11.6733 16.6674 11.3067 16.5487 11 16.33V23.6C11 23.8785 11.1106 24.1456 11.3075 24.3425C11.5045 24.5394 11.7715 24.65 12.05 24.65C12.3285 24.65 12.5955 24.5394 12.7925 24.3425C12.9894 24.1456 13.1 23.8785 13.1 23.6V16.34C12.7828 16.5763 12.3955 16.6995 12 16.69L12.05 16.67ZM3.1 22.24V1.93C3.09737 1.68243 2.99717 1.44591 2.82117 1.27178C2.64517 1.09765 2.40758 0.99999 2.16 1H1.94C1.69242 0.99999 1.45483 1.09765 1.27883 1.27178C1.10283 1.44591 1.00263 1.68243 1 1.93V22.24C1 22.4893 1.09904 22.7284 1.27532 22.9047C1.4516 23.081 1.6907 23.18 1.94 23.18H2.16C2.40931 23.18 2.6484 23.081 2.82468 22.9047C3.00097 22.7284 3.1 22.4893 3.1 22.24ZM5.48 20.76H5.26C5.0107 20.76 4.7716 20.661 4.59532 20.4847C4.41904 20.3084 4.32 20.0693 4.32 19.82V4.35C4.32264 4.10244 4.42283 3.8659 4.59883 3.69178C4.77483 3.51765 5.01242 3.41999 5.26 3.42H5.48C5.72758 3.41999 5.96517 3.51765 6.14117 3.69178C6.31717 3.8659 6.41737 4.10244 6.42 4.35V19.84C6.42 20.0893 6.32096 20.3284 6.14468 20.5047C5.9684 20.681 5.7293 20.78 5.48 20.78V20.76ZM8.79 18.38H8.56C8.3134 18.38 8.0768 18.282 7.9024 18.1076C7.728 17.9332 7.63 17.6967 7.63 17.45V6.75C7.6287 6.62703 7.6518 6.50502 7.6979 6.39103C7.744 6.27704 7.8123 6.17334 7.8988 6.08592C7.9853 5.9985 8.0883 5.9291 8.2018 5.88174C8.3153 5.83438 8.437 5.80999 8.56 5.81H8.79C9.0376 5.81264 9.2741 5.91283 9.4482 6.08883C9.6224 6.26483 9.72 6.50242 9.72 6.75V17.45C9.72 17.6967 9.622 17.9332 9.4476 18.1076C9.2732 18.282 9.0367 18.38 8.79 18.38ZM12.1 15.93H11.89C11.6424 15.93 11.4048 15.8324 11.2288 15.6582C11.0528 15.4841 10.9526 15.2476 10.95 15V9.24C10.9418 9.1116 10.96 8.9829 11.0036 8.8618C11.0471 8.7408 11.1151 8.6299 11.2032 8.5362C11.2913 8.4424 11.3977 8.3678 11.5159 8.3168C11.634 8.2659 11.7613 8.2397 11.89 8.24H12.11C12.3593 8.24 12.5984 8.339 12.7747 8.5153C12.951 8.6916 13.05 8.9307 13.05 9.18V14.98C13.0513 15.1043 13.028 15.2276 12.9813 15.3428C12.9347 15.458 12.8657 15.5628 12.7782 15.6512C12.6908 15.7395 12.5868 15.8096 12.472 15.8575C12.3573 15.9054 12.2343 15.93 12.11 15.93H12.1ZM15.42 13.78H15.2C14.9507 13.78 14.7116 13.681 14.5353 13.5047C14.359 13.3284 14.26 13.0893 14.26 12.84V11.35C14.2626 11.1024 14.3628 10.8659 14.5388 10.6918C14.7148 10.5176 14.9524 10.42 15.2 10.42H15.42C15.6676 10.42 15.9052 10.5176 16.0812 10.6918C16.2572 10.8659 16.3574 11.1024 16.36 11.35V12.84C16.36 13.0876 16.2624 13.3252 16.0882 13.5012C15.9141 13.6772 15.6776 13.7774 15.43 13.78H15.42Z" fill="white" stroke="white"/>
</svg>
