<svg width="115" height="26" viewBox="0 0 115 26" fill="none" xmlns="http://www.w3.org/2000/svg">
<path d="M0.940979 25.8248H26.591V0.174805H0.940979V25.8248ZM21.654 10.5318H16.234V5.1118H21.654V10.5318ZM5.87698 5.1118H11.3V15.4678H21.654V20.8878H5.87698V5.1118ZM43.294 0.174805C40.7574 0.174805 38.2778 0.926985 36.1688 2.33621C34.0597 3.74544 32.4159 5.74844 31.4452 8.09191C30.4745 10.4354 30.2206 13.014 30.7154 15.5018C31.2103 17.9896 32.4317 20.2748 34.2253 22.0684C36.0189 23.8621 38.3041 25.0835 40.7919 25.5784C43.2798 26.0732 45.8584 25.8193 48.2019 24.8486C50.5454 23.8779 52.5483 22.2341 53.9576 20.125C55.3668 18.0159 56.119 15.5363 56.119 12.9998C56.115 9.5996 54.7625 6.33984 52.3582 3.93555C49.9539 1.53125 46.6942 0.178775 43.294 0.174805ZM43.294 20.8878C41.7339 20.8878 40.2088 20.4252 38.9116 19.5584C37.6145 18.6917 36.6034 17.4598 36.0064 16.0184C35.4094 14.5771 35.2532 12.9911 35.5575 11.4609C35.8619 9.9308 36.6132 8.52531 37.7163 7.42215C38.8195 6.319 40.225 5.56773 41.7551 5.26337C43.2852 4.95901 44.8712 5.11523 46.3126 5.71224C47.7539 6.30926 48.9859 7.32029 49.8526 8.6175C50.7194 9.9146 51.182 11.4397 51.182 12.9998C51.1788 15.0909 50.3467 17.0954 48.8681 18.574C47.3895 20.0526 45.385 20.8846 43.294 20.8878ZM102.013 0.174805C99.476 0.174615 96.9967 0.926615 94.8875 2.33572C92.7783 3.74483 91.1344 5.74776 90.1635 8.09121C89.1927 10.4346 88.9385 13.0134 89.4333 15.5012C89.928 17.9891 91.1494 20.2744 92.943 22.0681C94.7365 23.8618 97.0217 25.0834 99.51 25.5783C101.997 26.0732 104.576 25.8193 106.92 24.8487C109.263 23.878 111.266 22.2342 112.675 20.1251C114.085 18.016 114.837 15.5364 114.837 12.9998C114.833 9.5998 113.481 6.34016 111.077 3.9359C108.673 1.53163 105.413 0.179045 102.013 0.174805ZM102.013 20.8878C100.453 20.888 98.928 20.4255 97.6304 19.5589C96.3331 18.6923 95.3219 17.4604 94.7247 16.0191C94.1275 14.5778 93.9712 12.9917 94.2754 11.4615C94.5797 9.9314 95.3309 8.5258 96.434 7.4225C97.5371 6.31924 98.943 5.56788 100.473 5.26344C102.003 4.959 103.589 5.11515 105.03 5.71215C106.472 6.30914 107.704 7.32016 108.571 8.6174C109.437 9.9146 109.9 11.4397 109.9 12.9998C109.897 15.0907 109.065 17.095 107.586 18.5736C106.108 20.0522 104.104 20.8844 102.013 20.8878ZM72.653 0.174805C70.1164 0.174805 67.6368 0.926985 65.5278 2.33621C63.4187 3.74544 61.7749 5.74844 60.8042 8.09191C59.8335 10.4354 59.5796 13.014 60.0744 15.5018C60.5693 17.9896 61.7907 20.2748 63.5843 22.0684C65.3779 23.8621 67.6631 25.0835 70.1509 25.5784C72.6387 26.0732 75.2174 25.8193 77.5609 24.8486C79.9044 23.8779 81.9073 22.2341 83.3166 20.125C84.7258 18.0159 85.478 15.5363 85.478 12.9998C85.474 9.5996 84.1215 6.33984 81.7172 3.93555C79.3129 1.53125 76.0532 0.178775 72.653 0.174805ZM72.653 20.8878C71.1994 20.8885 69.774 20.4876 68.5339 19.7293C67.2939 18.971 66.2874 17.8849 65.6257 16.5907C64.9641 15.2965 64.6728 13.8446 64.7842 12.3954C64.8956 10.9461 65.4052 9.5558 66.2569 8.3779C67.1086 7.20006 68.2692 6.28041 69.6105 5.72051C70.9519 5.1606 72.4219 4.98222 73.8582 5.20504C75.2946 5.42787 76.6414 6.04324 77.7501 6.98323C78.8588 7.92321 79.6862 9.1513 80.141 10.5318H72.653V15.4678H80.141C79.6201 17.0431 78.6165 18.4145 77.2724 19.3873C75.9284 20.3602 74.3122 20.8851 72.653 20.8878Z" fill="white"/>
</svg>
