<svg width="139" height="38" viewBox="0 0 139 38" fill="none" xmlns="http://www.w3.org/2000/svg">
<path d="M46.0967 24.4548V8.89844H43.5276V24.4548H46.0967Z" fill="white"/>
<path d="M47.6692 19.2694C47.6692 22.4476 49.8171 24.7057 53.0812 24.7057C56.3452 24.7057 58.4932 22.4476 58.4932 19.2694C58.4932 16.0912 56.3452 13.833 53.0812 13.833C49.8171 13.833 47.6692 16.0912 47.6692 19.2694ZM50.2593 19.2694C50.2593 17.4085 51.3754 16.1121 53.0812 16.1121C54.7869 16.1121 55.903 17.4085 55.903 19.2694C55.903 21.1094 54.7869 22.4266 53.0812 22.4266C51.3754 22.4266 50.2593 21.1094 50.2593 19.2694Z" fill="white"/>
<path d="M59.3573 19.0601C59.3573 22.071 61.3158 24.2456 64.2429 24.2456C65.7591 24.2456 67.0647 23.6392 67.7175 22.6356V24.3919C67.7175 26.0856 66.6436 27.2147 64.8536 27.2147C63.2531 27.2147 62.1581 26.441 62.0107 25.0819H59.4205C59.7574 27.7792 61.8422 29.5356 64.7062 29.5356C68.0755 29.5356 70.2235 27.3401 70.2235 23.9319V14.1256H67.9492L67.8018 15.5265C67.17 14.4392 65.8644 13.791 64.3271 13.791C61.3579 13.791 59.3573 16.0283 59.3573 19.0601ZM61.9686 18.9974C61.9686 17.2828 63.0636 16.0283 64.6851 16.0283C66.454 16.0283 67.6333 17.3037 67.6333 18.9974C67.6333 20.7119 66.454 22.0292 64.6851 22.0292C63.0847 22.0292 61.9686 20.7328 61.9686 18.9974Z" fill="white"/>
<path d="M71.4949 19.2694C71.4949 22.4476 73.6428 24.7057 76.9069 24.7057C80.171 24.7057 82.3189 22.4476 82.3189 19.2694C82.3189 16.0912 80.171 13.833 76.9069 13.833C73.6428 13.833 71.4949 16.0912 71.4949 19.2694ZM74.0851 19.2694C74.0851 17.4085 75.2012 16.1121 76.9069 16.1121C78.6126 16.1121 79.7287 17.4085 79.7287 19.2694C79.7287 21.1094 78.6126 22.4266 76.9069 22.4266C75.2012 22.4266 74.0851 21.1094 74.0851 19.2694Z" fill="white"/>
<path d="M85.0993 12.0142C85.9416 12.0142 86.6365 11.3451 86.6365 10.4879C86.6365 9.65151 85.9416 8.98242 85.0993 8.98242C84.2359 8.98242 83.5831 9.65151 83.5831 10.4879C83.5831 11.3451 84.2359 12.0142 85.0993 12.0142ZM83.8147 24.4551H86.3838V14.1261H83.8147V24.4551Z" fill="white"/>
<path d="M88.6346 29.2424H91.1408V23.0324C91.7936 24.0988 93.2045 24.7261 94.7628 24.7261C97.8373 24.7261 99.6694 22.3843 99.6273 19.1643C99.5641 15.9233 97.6899 13.8115 94.7417 13.8115C93.1624 13.8115 91.7304 14.5015 91.0986 15.6933L90.9512 14.1252H88.6346V29.2424ZM91.246 19.2897C91.246 17.4288 92.3832 16.1324 94.1732 16.1324C95.9631 16.1324 97.0371 17.4497 97.0371 19.2897C97.0371 21.1297 95.9631 22.4261 94.1732 22.4261C92.3832 22.4261 91.246 21.1506 91.246 19.2897Z" fill="white"/>
<path d="M100.279 21.3597C100.363 23.4088 101.964 24.7261 104.449 24.7261C106.892 24.7261 108.555 23.4297 108.555 21.4224C108.555 19.9379 107.629 18.9343 105.923 18.5161L104.091 18.077C103.312 17.8679 102.785 17.5961 102.785 16.927C102.785 16.2161 103.354 15.7143 104.28 15.7143C105.249 15.7143 105.881 16.2579 105.881 17.157H108.218C108.134 15.1079 106.597 13.8115 104.343 13.8115C102.111 13.8115 100.448 15.1079 100.448 17.0733C100.448 18.4115 101.227 19.5197 103.227 20.0424L105.038 20.5024C105.712 20.6906 106.133 21.0043 106.133 21.5897C106.133 22.4052 105.354 22.7815 104.407 22.7815C103.269 22.7815 102.617 22.2588 102.617 21.3597H100.279Z" fill="white"/>
<path d="M113.885 24.7269C115.296 24.7269 116.643 24.0787 117.254 23.1169L117.423 24.4551H119.823V14.126H117.254V19.5414C117.254 21.4023 116.538 22.4478 114.853 22.4478C113.548 22.4478 112.642 21.8205 112.642 19.6878V14.126H110.073V20.5869C110.073 23.0542 111.421 24.7269 113.885 24.7269Z" fill="white"/>
<path d="M124.659 24.4543V18.5161C124.659 16.8433 125.649 16.0488 126.871 16.0488C128.092 16.0488 128.892 16.8224 128.892 18.2861V24.4543H131.398V18.537C131.398 16.8433 132.367 16.0488 133.588 16.0488C134.831 16.0488 135.631 16.8224 135.631 18.2861V24.4543H138.116V17.7006C138.116 15.317 136.789 13.8115 134.262 13.8115C132.683 13.8115 131.44 14.5643 130.935 15.777C130.366 14.5643 129.229 13.8115 127.502 13.8115C126.281 13.8115 125.186 14.3761 124.575 15.2961L124.449 14.1252H122.09V24.4543H124.659Z" fill="white"/>
<path d="M118.5 33.6854C118.883 33.6854 119.215 33.3654 119.215 32.9854C119.215 32.5954 118.883 32.2754 118.5 32.2754C118.107 32.2754 117.775 32.5954 117.775 32.9854C117.775 33.3654 118.107 33.6854 118.5 33.6854Z" fill="white"/>
<path d="M119.954 31.1056C119.954 32.6356 120.901 33.6656 122.281 33.6656C123.469 33.6656 124.376 32.9556 124.567 31.8956H123.66C123.489 32.4856 122.966 32.8356 122.341 32.8356C121.455 32.8356 120.891 32.1556 120.891 31.0956C120.891 30.0156 121.485 29.3556 122.361 29.3556C122.966 29.3556 123.489 29.6756 123.65 30.3056H124.557C124.396 29.2356 123.55 28.5156 122.371 28.5156C120.941 28.5156 119.954 29.5656 119.954 31.1056Z" fill="white"/>
<path d="M124.924 31.0954C124.924 32.5654 125.931 33.6654 127.442 33.6654C128.953 33.6654 129.96 32.5654 129.96 31.0954C129.96 29.6254 128.953 28.5254 127.442 28.5254C125.931 28.5254 124.924 29.6254 124.924 31.0954ZM125.881 31.0954C125.881 30.0954 126.495 29.3654 127.442 29.3654C128.389 29.3654 129.003 30.0954 129.003 31.0954C129.003 32.0954 128.389 32.8254 127.442 32.8254C126.495 32.8254 125.881 32.0954 125.881 31.0954Z" fill="white"/>
<path d="M131.715 33.5554V30.6154C131.715 29.8454 132.198 29.3454 132.903 29.3454C133.578 29.3454 134.001 29.7754 134.001 30.5454V33.5554H134.928V30.6254C134.928 29.8454 135.401 29.3454 136.116 29.3454C136.781 29.3454 137.204 29.7754 137.204 30.5454V33.5554H138.12V30.3454C138.12 29.2154 137.456 28.5254 136.328 28.5254C135.562 28.5254 134.968 28.8954 134.726 29.4954C134.474 28.8954 133.921 28.5254 133.115 28.5254C132.5 28.5254 131.957 28.8054 131.685 29.2854L131.614 28.6654H130.768V33.5554H131.715Z" fill="white"/>
<path fill-rule="evenodd" clip-rule="evenodd" d="M0.831161 19.3959L0.832929 19.2137L0.836573 19.0315L0.842103 18.8492L0.84951 18.6669L0.858812 18.4846L0.869991 18.3024L0.883066 18.1202L0.898017 17.938L0.914864 17.7559L0.933597 17.5738L0.954216 17.392L0.976712 17.2102L1.0011 17.0285L1.02738 16.8471L1.05553 16.6658L1.08557 16.4848L1.1175 16.3039L1.1513 16.1234L1.18698 15.943L1.22453 15.7629L1.26397 15.5831L1.30526 15.4036L1.34844 15.2245L1.39347 15.0457L1.44037 14.8674L1.48913 14.6893L1.53975 14.5116L1.59222 14.3345L1.64654 14.1577L1.70271 13.9815L1.76072 13.8056L1.82057 13.6303L1.88225 13.4554L1.94576 13.2812L2.01109 13.1074L2.07824 12.9343L2.14721 12.7617L2.21799 12.5897L2.29057 12.4185L2.36494 12.2477L2.44111 12.0776L2.51906 11.9083L2.59879 11.7396L2.68029 11.5716L2.76357 11.4044L2.8486 11.2379L2.93538 11.0722L3.0239 10.9072L3.11416 10.7431L3.20615 10.5797L3.29987 10.4172L3.39529 10.2555L3.49243 10.0947L3.59126 9.93481L3.69178 9.77581L3.79397 9.61772L3.89785 9.46063L4.00339 9.30436L4.11057 9.14918L4.21941 8.9949L4.32988 8.84163L4.44196 8.68945L4.55567 8.53818L4.67098 8.38809L4.78789 8.239L4.90637 8.09094L5.02643 7.94403L5.14806 7.79823L5.27123 7.65356L5.39595 7.51002L5.5222 7.36765L5.64996 7.22646L5.77924 7.08645L5.91001 6.94765L6.04226 6.81007L6.17598 6.67372L6.31115 6.53862L6.44778 6.40479L6.58584 6.27223L6.72532 6.14097L6.86621 6.01102L7.00849 5.88239L7.15216 5.7551L7.29719 5.62915L7.44359 5.50456L7.59131 5.38136L7.74037 5.25955L7.89075 5.13914L8.04242 5.02015L8.19539 4.90259L8.34958 4.78648L8.50513 4.67181L8.66188 4.55863L8.81982 4.44693L8.97895 4.33672L9.13936 4.22802L9.30087 4.12083L9.46357 4.01519L9.62746 3.91108L9.79254 3.80853L9.95862 3.70755L10.1259 3.60814L10.2942 3.51033L10.4636 3.41412L10.634 3.31952L10.8055 3.22655L10.978 3.1352L11.1515 3.04551L11.326 2.95747L11.5016 2.8711L11.678 2.7864L11.8554 2.70338L12.0337 2.62206L12.213 2.54245L12.3931 2.46455L12.5741 2.38838L12.7559 2.31394L12.9386 2.24124L13.1221 2.17029L13.3064 2.1011L13.4914 2.03368L13.6773 1.96804L13.8639 1.90418L14.0512 1.8421L14.2392 1.78184L14.4279 1.72338L14.6173 1.66673L14.8074 1.61191L14.998 1.55892L15.1894 1.50776L15.3813 1.45844L15.5737 1.41098L15.7667 1.36538L15.9604 1.32162L16.1545 1.27975L16.349 1.23974L16.5441 1.20161L16.7397 1.16538L16.9357 1.13102L17.1322 1.09857L17.3291 1.06801L17.5263 1.03936L17.7239 1.01262L17.9218 0.987796L18.1201 0.964887L18.3187 0.943887L18.5176 0.924832L18.7167 0.907696L18.9162 0.892487L19.1157 0.879223L20.1892 0.818359L20.2504 5.95351L20.2855 5.95311L20.4337 5.9529L20.582 5.95414L20.7302 5.95682L20.8786 5.96096L21.0269 5.96654L21.1754 5.97356L21.3238 5.98204L21.4722 5.99198L21.6205 6.00335L21.7689 6.01619L21.9172 6.03048L22.0654 6.04622L22.2134 6.06341L22.3615 6.08206L22.5094 6.10216L22.6571 6.1237L22.8047 6.14671L22.9522 6.17117L23.0995 6.19707L23.2466 6.22442L23.3935 6.25322L23.54 6.28348L23.6865 6.31517L23.8327 6.3483L23.9785 6.38288L24.1242 6.4189L24.2695 6.45636L24.4144 6.49525L24.5591 6.53558L24.7035 6.57733L24.8474 6.62051L24.991 6.66512L25.1342 6.71116L25.277 6.75861L25.4194 6.80748L25.5613 6.85776L25.7028 6.90944L25.8438 6.96254L25.9844 7.01703L26.1245 7.07293L26.264 7.13022L26.403 7.1889L26.5415 7.24896L26.6795 7.3104L26.8168 7.37322L26.9536 7.4374L27.0898 7.50296L27.2254 7.56988L27.3604 7.63815L27.4947 7.70777L27.6284 7.77873L27.7614 7.85104L27.8937 7.92468L28.0254 7.99964L28.1563 8.07592L28.2865 8.15354L28.416 8.23245L28.5447 8.31263L28.6726 8.39418L28.7998 8.4769L28.9261 8.561L29.0518 8.64636L29.1765 8.7329L29.3004 8.82081L29.4235 8.9099L29.5456 9.00027L29.667 9.0919L29.7874 9.18472L29.907 9.27881L30.0256 9.374L30.1433 9.47045L30.2601 9.56818L30.3759 9.66699L30.4908 9.767L30.6047 9.86818L30.7175 9.97054L30.8294 10.0741L30.9402 10.1787L31.0501 10.2844L31.1589 10.3914L31.2667 10.4994L31.3733 10.6085L31.479 10.7187L31.5834 10.83L31.6869 10.9424L31.7892 11.0558L31.8903 11.1703L31.9904 11.2858L32.0893 11.4024L32.1871 11.5199L32.2837 11.6385L32.3791 11.7581L32.4733 11.8786L32.5663 12.0002L32.6582 12.1227L32.7487 12.2462L32.8381 12.3706L32.9262 12.496L33.013 12.6222L33.0986 12.7494L33.183 12.8775L33.266 13.0065L33.3477 13.1363L33.4282 13.2669L33.5073 13.3985L33.5851 13.5308L33.6615 13.664L33.7367 13.798L33.8105 13.9328L33.8829 14.0684L33.954 14.2047L34.0237 14.3418L34.092 14.4796L34.1589 14.6183L34.2244 14.7575L34.2885 14.8975L34.3513 15.0383L34.4125 15.1796L34.4723 15.3217L34.5307 15.4644L34.5877 15.6077L34.6431 15.7516L34.6972 15.8963L34.7497 16.0414L34.8008 16.1872L34.8504 16.3335L34.8986 16.4804L34.9452 16.6277L34.9903 16.7756L35.0339 16.9241L35.076 17.073L35.1166 17.2225L35.1557 17.3724L35.1931 17.5226L35.2292 17.6734L35.2636 17.8246L35.2965 17.9763L35.3279 18.1282L35.3577 18.2806L35.3859 18.4334L35.4126 18.5865L35.4377 18.7398L35.4612 18.8935L35.4832 19.0476L35.5035 19.2019L35.5223 19.3565L35.5395 19.5114L35.5551 19.6665L35.5691 19.8217L35.5815 19.9773L35.5923 20.133L35.6015 20.2889L35.6091 20.4449L35.6151 20.6012L35.6194 20.7575L35.6223 20.9139L35.6234 21.0704L35.6229 21.2271L35.6208 21.3838L35.6171 21.5406L35.6117 21.6974L35.6048 21.8542L35.5963 22.011L35.586 22.1678L35.5742 22.3246L35.5607 22.4814L35.5456 22.6381L35.529 22.7947L35.5106 22.9512L35.4906 23.1076L35.4691 23.2639L35.4458 23.4201L35.421 23.5761L35.3946 23.7319L35.3665 23.8875L35.3368 24.043L35.3055 24.1983L35.2725 24.3533L35.2379 24.508L35.2017 24.6625L35.164 24.8167L35.1246 24.9706L35.0835 25.1242L35.041 25.2775L34.9967 25.4304L34.951 25.5829L34.9035 25.7352L34.8545 25.8869L34.8039 26.0384L34.7517 26.1893L34.6979 26.3398L34.6426 26.4899L34.5856 26.6394L34.5271 26.7885L34.4671 26.9372L34.4055 27.0853L34.3423 27.2328L34.2776 27.3799L34.2113 27.5263L34.1434 27.6722L34.074 27.8174L34.0032 27.9621L33.9306 28.1062L33.8567 28.2495L33.7812 28.3924L33.7043 28.5344L33.6257 28.6758L33.5458 28.8165L33.4643 28.9564L33.3814 29.0957L33.297 29.2342L33.2111 29.372L33.1236 29.5089L33.0348 29.6451L32.9446 29.7804L32.8529 29.915L32.7598 30.0487L32.6652 30.1816L32.5693 30.3136L32.4718 30.4448L32.373 30.5751L32.2729 30.7044L32.1713 30.8328L32.0684 30.9604L31.9641 31.0869L31.8585 31.2124L31.7515 31.3371L31.6431 31.4607L31.5335 31.5834L31.4225 31.705L31.3102 31.8256L31.1967 31.9452L31.0818 32.0637L30.9657 32.1811L30.8482 32.2974L30.7296 32.4127L30.6097 32.5269L30.4886 32.64L30.3663 32.7519L30.2427 32.8627L30.1179 32.9723L29.992 33.0807L29.8648 33.1881L29.7365 33.2942L29.6071 33.399L29.4765 33.5027L29.3448 33.6052L29.2119 33.7064L29.0779 33.8063L28.9429 33.905L28.8068 34.0024L28.6696 34.0985L28.5313 34.1934L28.3921 34.287L28.2518 34.3792L28.1105 34.4701L27.9682 34.5597L27.8249 34.6479L27.6806 34.7348L27.5353 34.8203L27.3891 34.9045L27.242 34.9872L27.0939 35.0684L26.945 35.1484L26.7951 35.2269L26.6444 35.304L26.4928 35.3797L26.3404 35.4539L26.1871 35.5266L26.033 35.598L25.8781 35.6678L25.7224 35.7362L25.566 35.803L25.4087 35.8684L25.2508 35.9323L25.0921 35.9946L24.9327 36.0554L24.7726 36.1148L24.6118 36.1725L24.4503 36.2288L24.2883 36.2834L24.1256 36.3366L23.9621 36.3882L23.7981 36.4382L23.6336 36.4866L23.4685 36.5334L23.3028 36.5787L23.1366 36.6224L22.9698 36.6644L22.8026 36.7049L22.6349 36.7438L22.4666 36.781L22.298 36.8166L22.1288 36.8506L21.9593 36.883L21.7893 36.9137L21.619 36.9427L21.4483 36.9702L21.2773 36.996L21.1058 37.0201L20.9341 37.0425L20.7621 37.0634L20.5897 37.0824L20.4171 37.0999L20.2442 37.1157L20.0712 37.1298L19.8978 37.1423L19.7243 37.153L19.5506 37.1621L19.3767 37.1694L19.2027 37.1751L19.0285 37.1791L18.8543 37.1814L18.6798 37.182L18.5054 37.1809L18.3309 37.1781L18.1563 37.1736L17.9817 37.1674L17.8071 37.1594L17.6325 37.1499L17.458 37.1385L17.2834 37.1255L17.109 37.1108L16.9346 37.0944L16.7602 37.0763L16.5861 37.0564L16.412 37.0349L16.2381 37.0116L16.0644 36.9866L15.8908 36.96L15.7175 36.9316L15.5443 36.9016L15.3714 36.8698L15.1988 36.8364L15.0264 36.8013L14.8543 36.7644L14.6825 36.7258L14.5111 36.6856L14.34 36.6437L14.1692 36.6001L13.9988 36.5548L13.8289 36.5079L13.6593 36.4593L13.4901 36.409L13.3215 36.357L13.1533 36.3034L12.9855 36.2481L12.8183 36.1911L12.6515 36.1324L12.4854 36.0723L12.3197 36.0104L12.1547 35.9468L11.9902 35.8816L11.8263 35.8148L11.6631 35.7464L11.5005 35.6764L11.3385 35.6047L11.1772 35.5314L11.0166 35.4565L10.8567 35.3801L10.6976 35.302L10.5391 35.2224L10.3814 35.1412L10.2246 35.0584L10.0684 34.9741L9.91312 34.8882L9.75866 34.8007L9.60502 34.7117L9.45221 34.6212L9.30032 34.5292L9.14925 34.4355L8.99909 34.3405L8.84994 34.2439L8.70162 34.1459L8.5543 34.0463L8.40799 33.9453L8.26259 33.8428L8.11822 33.7388L7.97485 33.6334L7.83252 33.5265L7.69123 33.4183L7.551 33.3086L7.41184 33.1974L7.27378 33.085L7.13682 32.9711L7.00097 32.8558L6.86626 32.7392L6.73271 32.6211L6.60031 32.5017L6.4691 32.3811L6.33907 32.259L6.21026 32.1357L6.08266 32.011L5.95629 31.8851L5.83118 31.7579L5.70733 31.6294L5.58475 31.4996L5.46346 31.3686L5.34348 31.2364L5.22481 31.1029L5.10747 30.9683L4.99148 30.8324L4.87684 30.6954L4.76357 30.5571L4.65168 30.4177L4.54118 30.2772L4.43209 30.1355L4.32442 29.9927L4.21817 29.8488L4.11338 29.7038L4.01002 29.5577L3.90815 29.4106L3.80774 29.2625L3.70883 29.1132L3.61143 28.963L3.51552 28.8117L3.42114 28.6594L3.3283 28.5063L3.237 28.352L3.14726 28.1969L3.05908 28.0408L2.97248 27.8838L2.88746 27.7258L2.80404 27.567L2.72223 27.4074L2.64202 27.2468L2.56346 27.0855L2.48652 26.9232L2.41122 26.7602L2.33758 26.5963L2.2656 26.4317L2.19529 26.2663L2.12667 26.1002L2.05972 25.9333L1.99448 25.7656L1.93094 25.5974L1.86911 25.4284L1.80901 25.2587L1.75062 25.0884L1.69397 24.9175L1.63907 24.7459L1.58591 24.5737L1.53452 24.401L1.48489 24.2276L1.43702 24.0537L1.39093 23.8794L1.34663 23.7044L1.30411 23.529L1.26339 23.3531L1.22447 23.1766L1.18735 22.9998L1.15205 22.8225L1.11855 22.6449L1.08688 22.4668L1.05705 22.2884L1.02903 22.1095L1.00285 21.9304L0.978516 21.7508L0.956029 21.571L0.935383 21.3909L0.916586 21.2105L0.899647 21.03L0.884568 20.8491L0.871346 20.668L0.859993 20.4867L0.850508 20.3053L0.84289 20.1236L0.83714 19.9419L0.833267 19.76L0.83128 19.578L0.831161 19.3959ZM18.5734 6.06108L18.5317 2.5609L18.4921 2.5647L18.31 2.58393L18.1285 2.60491L17.947 2.62768L17.7663 2.65213L17.5857 2.67837L17.4053 2.70636L17.2255 2.73607L17.0459 2.76755L16.8672 2.80067L16.6882 2.83564L16.5105 2.87219L16.3325 2.91058L16.1554 2.9506L15.9785 2.9924L15.8024 3.0358L15.6268 3.08094L15.4517 3.12777L15.2771 3.17629L15.1033 3.22643L14.9298 3.2783L14.7572 3.33179L14.5851 3.38697L14.4139 3.44368L14.2429 3.50218L14.0729 3.56224L13.9037 3.6239L13.735 3.68723L13.5671 3.75211L13.4002 3.81856L13.2338 3.88671L13.0681 3.95641L12.9033 4.0277L12.7394 4.1005L12.5764 4.17487L12.4142 4.25074L12.2526 4.32829L12.0922 4.40725L11.9326 4.48775L11.774 4.56977L11.6162 4.6533L11.4595 4.73827L11.3035 4.8248L11.1485 4.91284L10.9949 5.00213L10.8417 5.09317L10.69 5.18541L10.5393 5.2791L10.3893 5.37431L10.2405 5.47092L10.0928 5.56894L9.94654 5.66811L9.80078 5.76904L9.65648 5.87105L9.51328 5.97447L9.37109 6.0793L9.23018 6.18539L9.09056 6.29274L8.95175 6.4016L8.81451 6.5115L8.67827 6.62285L8.54331 6.7354L8.40955 6.84927L8.27715 6.96422L8.14575 7.08063L8.01584 7.19808L7.88705 7.31688L7.75975 7.43668L7.63361 7.55778L7.50887 7.67997L7.3854 7.80337L7.26313 7.92804L7.14247 8.05357L7.02316 8.18018L6.90491 8.30827L6.7883 8.43718L6.67312 8.567L6.55912 8.69818L6.44678 8.83018L6.33568 8.96336L6.22608 9.09745L6.11791 9.23263L6.01115 9.36872L5.90597 9.50572L5.80216 9.64372L5.69978 9.78281L5.59905 9.92254L5.49966 10.0634L5.40186 10.2051L5.30557 10.3476L5.21072 10.4911L5.11748 10.6354L5.02576 10.7804L4.93559 10.9263L4.84702 11.0729L4.75992 11.2204L4.67437 11.3688L4.59051 11.5177L4.50816 11.6674L4.42738 11.818L4.34823 11.9692L4.27065 12.1211L4.19473 12.2735L4.12039 12.4267L4.04769 12.5805L3.97658 12.7351L3.90715 12.8901L3.8393 13.0458L3.7731 13.2021L3.7086 13.3588L3.6457 13.5162L3.58446 13.6741L3.5249 13.8325L3.46699 13.9914L3.41079 14.1506L3.35622 14.3105L3.30333 14.4708L3.25214 14.6315L3.20264 14.7925L3.1548 14.9542L3.10868 15.116L3.06424 15.2783L3.0215 15.4408L2.98045 15.6038L2.94112 15.767L2.90349 15.9305L2.86756 16.0944L2.83334 16.2585L2.80084 16.4227L2.77004 16.5873L2.74096 16.752L2.71359 16.917L2.68795 17.0821L2.66402 17.2474L2.6418 17.4128L2.6213 17.5784L2.60252 17.744L2.58547 17.9098L2.57013 18.0756L2.55651 18.2414L2.5446 18.4074L2.53442 18.5734L2.52595 18.7394L2.51921 18.9054L2.51417 19.0713L2.51086 19.2372L2.50924 19.403L2.50935 19.5688L2.51117 19.7344L2.51469 19.9001L2.51992 20.0655L2.52685 20.2308L2.53549 20.396L2.54582 20.5609L2.55785 20.7257L2.57158 20.8903L2.587 21.0546L2.60409 21.2188L2.62288 21.3826L2.64334 21.5463L2.66548 21.7095L2.68929 21.8725L2.71478 22.0353L2.74192 22.1975L2.77074 22.3595L2.8012 22.5212L2.83331 22.6824L2.86706 22.8433L2.90246 23.0036L2.9395 23.1636L2.97816 23.3232L3.01845 23.4823L3.06036 23.6409L3.10387 23.7989L3.14901 23.9565L3.19574 24.1136L3.24407 24.2702L3.29398 24.4262L3.34547 24.5815L3.39853 24.7364L3.45318 24.8905L3.50937 25.0442L3.56711 25.1971L3.62643 25.3494L3.68725 25.5011L3.74961 25.6521L3.81351 25.8024L3.87891 25.9519L3.94583 26.1008L4.01425 26.249L4.08415 26.3964L4.15553 26.543L4.22839 26.6888L4.30271 26.8339L4.37849 26.9782L4.45571 27.1216L4.53438 27.2643L4.61447 27.406L4.69597 27.5469L4.77889 27.687L4.86321 27.8261L4.94888 27.9644L5.03599 28.1017L5.12443 28.2381L5.21425 28.3736L5.30541 28.5082L5.3979 28.6417L5.49171 28.7744L5.58686 28.906L5.68329 29.0366L5.78105 29.1663L5.88004 29.2948L5.98036 29.4224L6.08188 29.5488L6.18468 29.6743L6.28875 29.7987L6.39398 29.922L6.50046 30.0442L6.60812 30.1653L6.71701 30.2853L6.82705 30.4041L6.93823 30.5218L7.05059 30.6384L7.16408 30.7538L7.27873 30.8681L7.39446 30.9811L7.51132 31.093L7.62923 31.2036L7.74823 31.3132L7.86833 31.4214L7.98945 31.5285L8.11154 31.6342L8.23476 31.7387L8.35901 31.842L8.48407 31.944L8.61033 32.0448L8.73742 32.1442L8.86551 32.2424L8.99451 32.3393L9.12453 32.4348L9.25536 32.529L9.38712 32.6219L9.51969 32.7134L9.65328 32.8037L9.78759 32.8925L9.92292 32.9801L10.0589 33.0663L10.1958 33.151L10.3335 33.2344L10.4718 33.3164L10.6111 33.3971L10.751 33.4763L10.8917 33.5541L11.0331 33.6304L11.1753 33.7054L11.318 33.779L11.4615 33.8512L11.6057 33.9218L11.7505 33.9911L11.8959 34.0589L12.0419 34.1253L12.1885 34.1901L12.3358 34.2535L12.4836 34.3155L12.632 34.376L12.7809 34.435L12.9303 34.4924L13.0803 34.5485L13.2306 34.6031L13.3815 34.6561L13.533 34.7076L13.6848 34.7577L13.837 34.8063L13.9896 34.8533L14.1428 34.8988L14.2961 34.9428L14.4499 34.9853L14.6041 35.0263L14.7586 35.0657L14.9134 35.1036L15.0684 35.14L15.2239 35.1749L15.3795 35.2082L15.5354 35.24L15.6916 35.2703L15.8479 35.299L16.0045 35.3262L16.1612 35.3518L16.3182 35.3759L16.4753 35.3985L16.6326 35.4194L16.7899 35.439L16.9474 35.4569L17.1049 35.4733L17.2626 35.4882L17.4204 35.5015L17.5781 35.5133L17.7359 35.5234L17.8937 35.5322L18.0515 35.5393L18.2092 35.5449L18.367 35.549L18.5247 35.5515L18.6823 35.5524L18.8399 35.5519L18.9974 35.5498L19.1547 35.5463L19.3119 35.5411L19.469 35.5344L19.6259 35.5263L19.7826 35.5165L19.9391 35.5054L20.0955 35.4926L20.2516 35.4784L20.4075 35.4625L20.5631 35.4453L20.7184 35.4265L20.8735 35.4063L21.0282 35.3845L21.1827 35.3612L21.3368 35.3364L21.4906 35.3102L21.644 35.2824L21.797 35.2533L21.9497 35.2226L22.1019 35.1904L22.2537 35.1569L22.4051 35.1218L22.5561 35.0853L22.7065 35.0474L22.8565 35.0079L23.0059 34.9671L23.1549 34.9248L23.3034 34.8811L23.4513 34.836L23.5986 34.7895L23.7455 34.7415L23.8917 34.6923L24.0372 34.6415L24.1823 34.5894L24.3267 34.5359L24.4705 34.481L24.6136 34.4248L24.7559 34.3673L24.8977 34.3083L25.0388 34.248L25.1791 34.1864L25.3186 34.1235L25.4576 34.0592L25.5958 33.9935L25.7331 33.9267L25.8698 33.8584L26.0056 33.789L26.1407 33.7183L26.275 33.6462L26.4083 33.5729L26.5409 33.4984L26.6725 33.4226L26.8035 33.3455L26.9334 33.2674L27.0627 33.1878L27.1907 33.1072L27.318 33.0253L27.4445 32.9422L27.57 32.8578L27.6943 32.7725L27.8178 32.6859L27.9404 32.5982L28.062 32.5094L28.1827 32.4193L28.3022 32.3283L28.4209 32.2359L28.5384 32.1426L28.6549 32.0483L28.7705 31.9527L28.8849 31.8561L28.9982 31.7585L29.1105 31.6598L29.2217 31.5602L29.3318 31.4594L29.4409 31.3577L29.5487 31.2551L29.6555 31.1513L29.7612 31.0465L29.8656 30.9409L29.969 30.8343L30.0711 30.7268L30.172 30.6185L30.272 30.5088L30.3705 30.3986L30.468 30.2874L30.5641 30.1754L30.6592 30.0624L30.7529 29.9486L30.8454 29.834L30.9368 29.7184L31.0268 29.6023L31.1157 29.4851L31.2031 29.3673L31.2895 29.2485L31.3746 29.129L31.4581 29.009L31.5406 28.888L31.6216 28.7665L31.7015 28.644L31.7801 28.5208L31.8572 28.3972L31.933 28.2728L32.0076 28.1474L32.0807 28.0219L32.1526 27.8954L32.2232 27.7684L32.2922 27.6409L32.36 27.5125L32.4265 27.3836L32.4914 27.2546L32.5552 27.1245L32.6175 26.994L32.6784 26.8631L32.7379 26.7316L32.796 26.5996L32.8527 26.4673L32.9081 26.3342L32.962 26.2007L33.0145 26.0672L33.0656 25.9326L33.1152 25.7981L33.1636 25.6629L33.2104 25.5274L33.2559 25.3915L33.2997 25.2556L33.3424 25.1187L33.3834 24.982L33.423 24.8448L33.4613 24.7074L33.4981 24.5695L33.5334 24.4316L33.5673 24.2933L33.5997 24.1546L33.6308 24.0159L33.6604 23.8768L33.6884 23.7378L33.715 23.5982L33.7402 23.4589L33.7639 23.3191L33.7862 23.1792L33.8069 23.0393L33.8264 22.8991L33.8442 22.7591L33.8607 22.6185L33.8756 22.4784L33.8892 22.3378L33.9012 22.1975L33.9118 22.0568L33.9209 21.9166L33.9286 21.776L33.9348 21.6353L33.9396 21.4949L33.943 21.3548L33.9448 21.2142L33.9453 21.0738L33.9443 20.9336L33.9418 20.7935L33.9379 20.6534L33.9325 20.5139L33.9257 20.3738L33.9175 20.2344L33.9077 20.0949L33.8967 19.9559L33.8841 19.8166L33.8702 19.678L33.8548 19.5393L33.838 19.401L33.8198 19.2628L33.8002 19.1251L33.779 18.9873L33.7566 18.8501L33.7328 18.7134L33.7075 18.5765L33.6808 18.4402L33.6528 18.3044L33.6233 18.1684L33.5926 18.0335L33.5603 17.8984L33.5269 17.7643L33.4918 17.6299L33.4555 17.4965L33.4179 17.3634L33.3789 17.2305L33.3386 17.0984L33.297 16.9667L33.2538 16.8352L33.2096 16.7046L33.1638 16.5742L33.117 16.4445L33.0686 16.3152L33.0191 16.1867L32.9681 16.0584L32.9159 15.9309L32.8625 15.8042L32.8079 15.678L32.7516 15.552L32.6946 15.4272L32.6359 15.3025L32.5762 15.1789L32.5152 15.0558L32.4529 14.9332L32.3895 14.8115L32.3248 14.6904L32.2588 14.5699L32.1919 14.4505L32.1236 14.3315L32.0541 14.2134L31.9834 14.0958L31.9118 13.9794L31.8386 13.8634L31.7646 13.7484L31.6893 13.6339L31.6129 13.5204L31.5356 13.408L31.4568 13.296L31.3771 13.185L31.2963 13.0748L31.2144 12.9656L31.1314 12.8571L31.0474 12.7496L30.9623 12.6429L30.8762 12.5372L30.789 12.4324L30.7007 12.3284L30.6115 12.2254L30.5213 12.1233L30.4302 12.0222L30.338 11.922L30.2446 11.8226L30.1507 11.7246L30.0553 11.6272L29.9595 11.5311L29.8625 11.4357L29.7647 11.3415L29.6657 11.2481L29.5662 11.1561L29.4655 11.0648L29.364 10.9746L29.2619 10.8856L29.1588 10.7976L29.0545 10.7104L28.9497 10.6245L28.8441 10.5397L28.7376 10.456L28.6303 10.3733L28.5225 10.2919L28.4134 10.2112L28.304 10.132L28.1937 10.0538L28.0825 9.97663L27.9709 9.90072L27.8581 9.82572L27.7453 9.75227L27.6312 9.67963L27.5168 9.60827L27.4014 9.538L27.2856 9.4689L27.1691 9.40109L27.0522 9.33454L26.9342 9.26881L26.8162 9.20463L26.6972 9.14145L26.5777 9.07954L26.4577 9.0189L26.3371 8.95936L26.2159 8.901L26.0943 8.844L25.9721 8.78809L25.8496 8.73354L25.7265 8.68009L25.5989 8.62627L25.479 8.57709L25.3542 8.52727L25.2296 8.479L25.1039 8.43163L24.9783 8.38581L24.8522 8.34109L24.7257 8.29772L24.5987 8.25545L24.4716 8.21463L24.344 8.175L24.2161 8.13663L24.0881 8.09963L23.9596 8.06378L23.8306 8.02916L23.7017 7.99595L23.5726 7.964L23.4427 7.93323L23.3132 7.90388L23.1831 7.8757L23.053 7.84888L22.9225 7.82328L22.7921 7.79902L22.6613 7.77602L22.5307 7.75436L22.3994 7.7339L22.2685 7.7148L22.1373 7.69697L22.0059 7.68041L21.8745 7.66516L21.7431 7.65121L21.6116 7.63854L21.4801 7.62716L21.3484 7.61706L21.2166 7.60824L21.0853 7.60073L20.9538 7.5945L20.8218 7.58955L20.6906 7.5859L20.5592 7.58351L20.4278 7.58242L20.2962 7.5826L20.2698 7.5829L20.3113 11.0576L20.3859 11.0573L20.482 11.0578L20.578 11.0593L20.6742 11.0617L20.7704 11.0651L20.8666 11.0695L20.9628 11.0747L21.0592 11.0809L21.1555 11.0881L21.2518 11.0962L21.3481 11.1053L21.4444 11.1153L21.5407 11.1263L21.6369 11.1382L21.733 11.151L21.8292 11.1649L21.9252 11.1796L22.0212 11.1954L22.1171 11.2121L22.2129 11.2297L22.3086 11.2484L22.4042 11.2679L22.4997 11.2884L22.595 11.3098L22.6901 11.3323L22.7851 11.3556L22.8799 11.3799L22.9746 11.4052L23.0691 11.4314L23.1634 11.4585L23.2575 11.4866L23.3513 11.5156L23.4449 11.5456L23.5383 11.5765L23.6315 11.6084L23.7243 11.6413L23.817 11.675L23.9093 11.7096L24.0014 11.7453L24.0931 11.7818L24.1846 11.8193L24.2757 11.8577L24.3665 11.897L24.457 11.9373L24.5471 11.9784L24.6368 12.0204L24.7263 12.0635L24.8153 12.1074L24.9039 12.1522L24.9922 12.1979L25.08 12.2444L25.1674 12.292L25.2544 12.3404L25.3409 12.3896L25.4271 12.4398L25.5128 12.4909L25.5979 12.5428L25.6826 12.5956L25.7668 12.6494L25.8506 12.7039L25.9338 12.7593L26.0166 12.8155L26.0988 12.8727L26.1805 12.9306L26.2616 12.9894L26.3422 13.0492L26.4223 13.1096L26.5017 13.171L26.5806 13.2332L26.6589 13.2961L26.7366 13.3599L26.8137 13.4245L26.8903 13.4899L26.9662 13.5561L27.0414 13.6231L27.116 13.6909L27.1899 13.7595L27.2633 13.8288L27.3359 13.8989L27.4078 13.9698L27.4792 14.0415L27.5497 14.1139L27.6197 14.187L27.6888 14.2609L27.7573 14.3355L27.8251 14.4109L27.8921 14.4869L27.9584 14.5637L28.0239 14.6412L28.0888 14.7194L28.1527 14.7983L28.216 14.8778L28.2785 14.9581L28.3402 15.039L28.4011 15.1206L28.4611 15.2028L28.5204 15.2857L28.5789 15.3693L28.6365 15.4535L28.6933 15.5383L28.7493 15.6236L28.8044 15.7097L28.8587 15.7964L28.9121 15.8835L28.9647 15.9714L29.0163 16.0598L29.0671 16.1487L29.117 16.2383L29.166 16.3284L29.2142 16.419L29.2614 16.5102L29.3077 16.6019L29.3531 16.6942L29.3976 16.7869L29.4411 16.8801L29.4836 16.9739L29.5253 17.0681L29.566 17.1628L29.6058 17.258L29.6446 17.3536L29.6824 17.4497L29.7192 17.5462L29.7551 17.6432L29.79 17.7405L29.824 17.8384L29.8569 17.9365L29.8888 18.0352L29.9197 18.1341L29.9497 18.2335L29.9786 18.3332L30.0065 18.4333L30.0334 18.5337L30.0593 18.6344L30.0841 18.7355L30.1079 18.8369L30.1307 18.9386L30.1524 19.0406L30.1731 19.1429L30.1927 19.2454L30.2113 19.3484L30.2288 19.4515L30.2453 19.5547L30.2607 19.6584L30.2751 19.7621L30.2884 19.8661L30.3006 19.9704L30.3117 20.0748L30.3218 20.1794L30.3308 20.2842L30.3387 20.3891L30.3456 20.4942L30.3513 20.5994L30.3559 20.7047L30.3595 20.8103L30.362 20.9158L30.3633 21.0215L30.3636 21.1274L30.3628 21.2332L30.3609 21.3391L30.3578 21.4451L30.3537 21.5512L30.3485 21.6572L30.3422 21.7633L30.3348 21.8694L30.3263 21.9755L30.3166 22.0816L30.3058 22.1877L30.2939 22.2937L30.281 22.3998L30.2669 22.5057L30.2517 22.6116L30.2354 22.7175L30.218 22.8232L30.1995 22.9288L30.1799 23.0344L30.1592 23.1398L30.1373 23.2451L30.1143 23.3503L30.0903 23.4553L30.0651 23.5601L30.0389 23.6647L30.0115 23.7693L29.983 23.8735L29.9534 23.9776L29.9228 24.0814L29.891 24.1851L29.8581 24.2885L29.8241 24.3917L29.789 24.4945L29.7528 24.5972L29.7157 24.6995L29.6773 24.8015L29.6378 24.9033L29.5974 25.0047L29.5558 25.1058L29.5131 25.2066L29.4694 25.307L29.4246 25.4071L29.3787 25.5068L29.3317 25.6061L29.2838 25.705L29.2347 25.8035L29.1845 25.9016L29.1333 25.9994L29.0812 26.0965L29.0279 26.1934L28.9736 26.2897L28.9183 26.3856L28.8619 26.481L28.8045 26.576L28.7461 26.6704L28.6866 26.7644L28.6261 26.8577L28.5647 26.9506L28.5021 27.0429L28.4387 27.1347L28.3742 27.226L28.3088 27.3166L28.2423 27.4067L28.1749 27.4963L28.1065 27.5852L28.0371 27.6734L27.9668 27.7611L27.8955 27.8482L27.8232 27.9345L27.7501 28.0204L27.6759 28.1054L27.6008 28.1899L27.5248 28.2736L27.4479 28.3567L27.3701 28.4391L27.2915 28.5208L27.2118 28.6017L27.1313 28.682L27.0498 28.7614L26.9676 28.8403L26.8844 28.9183L26.8004 28.9954L26.7156 29.072L26.6298 29.1476L26.5432 29.2225L26.4558 29.2967L26.3676 29.37L26.2785 29.4425L26.1887 29.5142L26.098 29.585L26.0065 29.655L25.9143 29.7242L25.8213 29.7924L25.7275 29.8599L25.633 29.9265L25.5377 29.9922L25.4416 30.057L25.3447 30.1209L25.2472 30.1839L25.149 30.246L25.0501 30.3072L24.9504 30.3674L24.8501 30.4267L24.7491 30.4851L24.6474 30.5424L24.5451 30.5989L24.4421 30.6544L24.3384 30.709L24.2341 30.7625L24.1292 30.8151L24.0237 30.8666L23.9176 30.9173L23.8109 30.9668L23.7036 31.0154L23.5957 31.0629L23.4873 31.1095L23.3783 31.1549L23.2687 31.1994L23.1587 31.2428L23.0481 31.2852L22.937 31.3265L22.8254 31.3668L22.7134 31.406L22.6007 31.4441L22.4878 31.4812L22.3742 31.5171L22.2603 31.552L22.146 31.5858L22.0312 31.6184L21.916 31.6501L21.8003 31.6805L21.6843 31.7099L21.568 31.7382L21.4512 31.7654L21.334 31.7914L21.2166 31.8163L21.0988 31.84L20.9807 31.8626L20.8623 31.8842L20.7436 31.9045L20.6245 31.9237L20.5053 31.9417L20.3858 31.9586L20.2659 31.9744L20.1459 31.989L20.0257 32.0024L19.9052 32.0146L19.7845 32.0257L19.6636 32.0356L19.5426 32.0444L19.4214 32.0519L19.3 32.0583L19.1785 32.0634L19.0568 32.0674L18.935 32.0703L18.8131 32.0719L18.6911 32.0724L18.5691 32.0716L18.447 32.0696L18.3248 32.0665L18.2025 32.0622L18.0803 32.0566L17.958 32.0499L17.8358 32.042L17.7134 32.0329L17.5912 32.0225L17.469 32.011L17.3467 31.9983L17.2246 31.9844L17.1026 31.9693L16.9805 31.9529L16.8586 31.9354L16.7369 31.9166L16.6152 31.8967L16.4936 31.8755L16.3722 31.8533L16.251 31.8297L16.1299 31.8049L16.009 31.779L15.8883 31.7519L15.7678 31.7235L15.6475 31.694L15.5275 31.6633L15.4076 31.6314L15.2881 31.5983L15.1688 31.564L15.0498 31.5285L14.9311 31.4919L14.8127 31.454L14.6947 31.415L14.5768 31.3748L14.4595 31.3334L14.3424 31.2909L14.2257 31.2472L14.1094 31.2023L13.9935 31.1563L13.878 31.109L13.7629 31.0606L13.6482 31.0112L13.5341 30.9604L13.4203 30.9086L13.307 30.8557L13.1942 30.8016L13.0819 30.7464L12.97 30.69L12.8587 30.6325L12.748 30.5739L12.6377 30.5142L12.528 30.4534L12.4189 30.3914L12.3103 30.3284L12.2024 30.2642L12.095 30.1989L11.9882 30.1326L11.8821 30.0652L11.7766 29.9967L11.6718 29.9271L11.5676 29.8564L11.464 29.7848L11.3612 29.7121L11.259 29.6383L11.1576 29.5634L11.0568 29.4875L10.9568 29.4106L10.8575 29.3327L10.759 29.2537L10.6612 29.1738L10.5642 29.0928L10.468 29.0109L10.3726 28.9279L10.2779 28.844L10.184 28.7591L10.0911 28.6733L9.99891 28.5864L9.90753 28.4986L9.81707 28.4099L9.72753 28.3203L9.63881 28.2296L9.55091 28.1382L9.46393 28.0457L9.37796 27.9524L9.29281 27.8582L9.20858 27.7631L9.12535 27.6671L9.04295 27.5703L8.96164 27.4725L8.88116 27.3739L8.80178 27.2745L8.72332 27.1743L8.64586 27.0732L8.56941 26.9713L8.49387 26.8686L8.41943 26.7651L8.3461 26.6608L8.27367 26.5557L8.20235 26.4499L8.13209 26.3434L8.06288 26.236L7.99473 26.1279L7.92767 26.0191L7.8617 25.9095L7.79682 25.7994L7.73304 25.6884L7.67037 25.5768L7.60882 25.4644L7.5484 25.3515L7.48911 25.2379L7.43096 25.1236L7.37396 25.0087L7.31812 24.8932L7.26344 24.7771L7.20994 24.6603L7.1576 24.543L7.10646 24.4251L7.0565 24.3065L7.00774 24.1875L6.96019 24.068L6.91385 23.9478L6.86872 23.8272L6.82481 23.7061L6.78213 23.5844L6.74069 23.4623L6.70049 23.3396L6.66153 23.2165L6.62383 23.0931L6.58738 22.9691L6.55219 22.8447L6.51827 22.7199L6.48563 22.5946L6.45426 22.4691L6.42416 22.3431L6.39537 22.2167L6.36786 22.09L6.34164 21.963L6.31673 21.8356L6.29312 21.7079L6.27081 21.5799L6.24983 21.4516L6.23015 21.3231L6.21179 21.1943L6.19477 21.0652L6.17906 20.9358L6.16469 20.8063L6.15164 20.6765L6.13993 20.5465L6.12957 20.4164L6.12054 20.2861L6.11285 20.1555L6.10651 20.0249L6.10152 19.8942L6.09789 19.7633L6.0956 19.6323L6.09466 19.5011L6.09509 19.3699L6.09687 19.2386L6.10002 19.1074L6.10452 18.976L6.11038 18.8445L6.11762 18.7132L6.12621 18.5817L6.13617 18.4504L6.14748 18.3189L6.16017 18.1876L6.17424 18.0563L6.18966 17.9251L6.20645 17.7939L6.2246 17.6628L6.24412 17.5318L6.26502 17.401L6.28727 17.2703L6.31089 17.1397L6.33588 17.0093L6.36223 16.879L6.38993 16.749L6.41901 16.6191L6.44944 16.4894L6.48123 16.36L6.51438 16.2308L6.54889 16.1019L6.58474 15.9732L6.62195 15.8448L6.66051 15.7167L6.70041 15.5889L6.74167 15.4614L6.78426 15.3343L6.82819 15.2074L6.87347 15.081L6.92007 14.9549L6.968 14.8292L7.01726 14.7039L7.06785 14.579L7.11975 14.4545L7.17298 14.3305L7.22751 14.2069L7.28336 14.0838L7.3405 13.9612L7.39895 13.839L7.45869 13.7174L7.51973 13.5963L7.58206 13.4756L7.64566 13.3556L7.71054 13.2361L7.7767 13.1172L7.84413 12.9988L7.9128 12.881L7.98275 12.7639L8.05394 12.6474L8.12637 12.5315L8.20006 12.4162L8.27495 12.3015L8.35113 12.1876L8.42841 12.0744L8.50706 11.9618L8.5868 11.8499L8.66774 11.7387L8.74996 11.6284L8.83328 11.5186L8.91788 11.4097L9.00358 11.3015L9.09047 11.1942L9.17845 11.0876L9.26763 10.9818L9.358 10.8768L9.44947 10.7726L9.54203 10.6694L9.63579 10.5669L9.73055 10.4653L9.8265 10.3645L9.92356 10.2646L10.0216 10.1657L10.1208 10.0676L10.221 9.97045L10.3224 9.87427L10.4247 9.7789L10.5281 9.68463L10.6326 9.59118L10.7381 9.49881L10.8445 9.40736L10.9519 9.3169L11.0604 9.22745L11.1698 9.139L11.2803 9.05154L11.3917 8.96518L11.504 8.87981L11.6173 8.79554L11.7316 8.71227L11.8466 8.63009L11.9627 8.549L12.0797 8.469L12.1975 8.39009L12.3162 8.31236L12.4358 8.23563L12.5562 8.16009L12.6775 8.08567L12.7997 8.01239L12.9226 7.94026L13.0463 7.8693L13.171 7.7995L13.2963 7.73087L13.4224 7.66344L13.5493 7.5972L13.6769 7.53217L13.8053 7.46834L13.9344 7.40573L14.0642 7.34435L14.1948 7.2842L14.326 7.2253L14.4579 7.16763L14.5905 7.11123L14.7237 7.0561L14.8575 7.00222L14.992 6.94963L15.1271 6.89832L15.2628 6.8483L15.3991 6.79959L15.536 6.75217L15.6734 6.70606L15.8114 6.66127L15.9498 6.6178L16.0889 6.57566L16.2285 6.53485L16.3685 6.49539L16.509 6.45726L16.65 6.42049L16.7914 6.38507L16.9334 6.35101L17.0756 6.31833L17.2184 6.287L17.3615 6.25706L17.505 6.2285L17.6489 6.20132L17.7931 6.17553L17.9377 6.15113L18.0826 6.12813L18.2278 6.10653L18.3733 6.08634L18.5191 6.06755L18.5734 6.06108ZM18.635 11.2148L18.593 7.7019L18.4736 7.71848L18.3451 7.7376L18.2166 7.75799L18.0888 7.77954L17.9609 7.80241L17.8337 7.82646L17.7067 7.85174L17.5801 7.8782L17.4539 7.90592L17.3279 7.93487L17.2023 7.965L17.0772 7.99633L16.9522 8.02891L16.8322 8.06145L16.7043 8.09754L16.5808 8.13363L16.4578 8.1709L16.3355 8.20927L16.2134 8.2489L16.0918 8.28972L15.9708 8.33163L15.8504 8.37463L15.7305 8.4189L15.6111 8.46418L15.4921 8.51072L15.3741 8.55827L15.2561 8.60709L15.139 8.6569L15.0224 8.70781L14.9067 8.75981L14.7913 8.813L14.6764 8.86727L14.5626 8.92245L14.449 8.9789L14.3366 9.03627L14.2243 9.0949L14.1132 9.15427L14.0022 9.21509L13.8923 9.27654L13.7832 9.33918L13.6746 9.4029L13.5668 9.46754L13.4596 9.53336L13.3535 9.5999L13.2479 9.66763L13.1432 9.73627L13.0393 9.80581L12.9361 9.87645L12.8336 9.94809L12.7322 10.0204L12.6314 10.0939L12.5314 10.1683L12.4323 10.2435L12.3342 10.3196L12.2367 10.3968L12.1403 10.4747L12.0447 10.5535L11.9498 10.6335L11.8562 10.7139L11.7631 10.7955L11.671 10.8778L11.5799 10.9609L11.4898 11.0448L11.4004 11.1297L11.3122 11.2152L11.2249 11.3015L11.1384 11.3888L11.0529 11.4767L10.9684 11.5655L10.8849 11.655L10.8024 11.7452L10.7208 11.8362L10.6402 11.928L10.5609 12.0203L10.4823 12.1134L10.4048 12.2074L10.3283 12.3018L10.253 12.3969L10.1785 12.4929L10.1051 12.5894L10.0328 12.6865L9.96155 12.7844L9.89133 12.8828L9.82229 12.9817L9.75426 13.0814L9.68724 13.1816L9.62132 13.2824L9.55659 13.3837L9.49296 13.4856L9.43033 13.5883L9.3688 13.6912L9.30847 13.7947L9.24914 13.8988L9.19109 14.0032L9.13405 14.1083L9.07801 14.2139L9.02335 14.3197L8.9697 14.4263L8.91724 14.5332L8.86587 14.6404L8.8157 14.7482L8.76662 14.8563L8.71874 14.9648L8.67195 15.0737L8.62645 15.183L8.58204 15.2926L8.53873 15.4027L8.49662 15.5131L8.45578 15.6237L8.41595 15.7348L8.3775 15.846L8.34005 15.9576L8.30389 16.0695L8.26882 16.1817L8.23504 16.2941L8.20235 16.4067L8.17094 16.5195L8.14065 16.6327L8.11157 16.746L8.08369 16.8595L8.05701 16.9733L8.03151 17.0871L8.0072 17.2012L7.98412 17.3154L7.96221 17.4296L7.9415 17.5442L7.92201 17.6587L7.90368 17.7735L7.88659 17.8881L7.87067 18.003L7.85596 18.1179L7.84245 18.2329L7.83014 18.3479L7.81902 18.463L7.8091 18.5781L7.80039 18.6931L7.79286 18.8083L7.78653 18.9234L7.78139 19.0384L7.77745 19.1534L7.7747 19.2683L7.77314 19.3832L7.77277 19.4981L7.77358 19.6128L7.77559 19.7274L7.77877 19.842L7.78313 19.9564L7.78868 20.0707L7.7954 20.1849L7.80329 20.2988L7.81236 20.4127L7.8226 20.5264L7.83401 20.6398L7.84658 20.7531L7.86031 20.8662L7.8752 20.9791L7.89124 21.0916L7.90845 21.2041L7.92679 21.3161L7.94628 21.428L7.96692 21.5396L7.98868 21.6508L8.01159 21.7619L8.03561 21.8725L8.06078 21.983L8.08704 22.0929L8.11445 22.2026L8.14296 22.312L8.17259 22.421L8.20326 22.5295L8.23513 22.6378L8.268 22.7456L8.30206 22.8531L8.33712 22.9602L8.37329 23.0667L8.41055 23.1728L8.44882 23.2785L8.48819 23.3838L8.52866 23.4886L8.57014 23.5929L8.61262 23.6967L8.6562 23.8001L8.70079 23.9029L8.74648 24.0052L8.79308 24.107L8.84079 24.2082L8.88949 24.3089L8.93912 24.4091L8.98984 24.5086L9.04148 24.6077L9.09413 24.7062L9.14778 24.804L9.20235 24.9013L9.25793 24.9979L9.31442 25.0939L9.37192 25.1893L9.43033 25.2841L9.48966 25.3782L9.54991 25.4716L9.61116 25.5645L9.67314 25.6565L9.73623 25.7481L9.80004 25.8388L9.86487 25.9289L9.93051 26.0183L9.99708 26.1069L10.0645 26.1948L10.1328 26.2821L10.2018 26.3685L10.2718 26.4543L10.3425 26.5393L10.4141 26.6235L10.4865 26.7069L10.5598 26.7897L10.6338 26.8715L10.7086 26.9527L10.7841 27.033L10.8605 27.1125L10.9376 27.1913L11.0155 27.2692L11.094 27.3463L11.1734 27.4225L11.2535 27.498L11.3342 27.5725L11.4158 27.6464L11.4979 27.7192L11.5808 27.7912L11.6644 27.8624L11.7486 27.9326L11.8335 28.0021L11.919 28.0705L12.0051 28.1382L12.0919 28.2049L12.1794 28.2708L12.2675 28.3357L12.356 28.3997L12.4452 28.4628L12.535 28.525L12.6254 28.5863L12.7164 28.6466L12.8078 28.706L12.8998 28.7644L12.9924 28.822L13.0854 28.8785L13.179 28.9342L13.2731 28.9888L13.3676 29.0425L13.4627 29.0952L13.5582 29.1469L13.6542 29.1977L13.7506 29.2475L13.8474 29.2963L13.9447 29.3442L14.0425 29.391L14.1406 29.4369L14.239 29.4817L14.338 29.5256L14.4371 29.5684L14.5367 29.6103L14.6367 29.6512L14.7371 29.691L14.8376 29.7298L14.9386 29.7676L15.0398 29.8044L15.1414 29.8403L15.2432 29.875L15.3454 29.9088L15.4477 29.9414L15.5504 29.9732L15.6533 30.0038L15.7564 30.0334L15.8597 30.0621L15.9632 30.0896L16.0669 30.1163L16.1709 30.1417L16.275 30.1662L16.3793 30.1896L16.4837 30.2121L16.5883 30.2335L16.6929 30.2537L16.7979 30.273L16.9027 30.2913L17.0078 30.3085L17.1129 30.3246L17.2181 30.3398L17.3234 30.3539L17.4287 30.367L17.5341 30.379L17.6395 30.39L17.7449 30.3999L17.8504 30.4088L17.9559 30.4166L18.0614 30.4235L18.1667 30.4293L18.2721 30.4341L18.3776 30.4378L18.4829 30.4405L18.5881 30.4422L18.6933 30.4428L18.7984 30.4424L18.9034 30.441L19.0084 30.4386L19.1131 30.4352L19.2178 30.4307L19.3223 30.4252L19.4267 30.4187L19.5309 30.4112L19.635 30.4026L19.7388 30.3931L19.8425 30.3825L19.9461 30.371L20.0494 30.3584L20.1525 30.3449L20.2553 30.3304L20.3579 30.3149L20.4603 30.2984L20.5623 30.2809L20.6642 30.2624L20.7657 30.2429L20.867 30.2225L20.9681 30.2011L21.0686 30.1787L21.1689 30.1555L21.2689 30.1311L21.3686 30.1059L21.468 30.0797L21.567 30.0525L21.6656 30.0245L21.7638 29.9954L21.8616 29.9655L21.959 29.9346L22.0561 29.9028L22.1527 29.8701L22.249 29.8364L22.3447 29.8019L22.4401 29.7664L22.5349 29.7301L22.6293 29.6928L22.7233 29.6546L22.8168 29.6156L22.9097 29.5757L23.0023 29.535L23.0942 29.4934L23.1858 29.4508L23.2768 29.4075L23.3671 29.3634L23.4572 29.3182L23.5464 29.2724L23.6353 29.2255L23.7234 29.1781L23.8111 29.1297L23.8983 29.0805L23.9847 29.0305L24.0707 28.9797L24.156 28.9282L24.2406 28.8758L24.3249 28.8226L24.4082 28.7688L24.4911 28.7141L24.5734 28.6585L24.6549 28.6024L24.7356 28.5455L24.816 28.4877L24.8955 28.4294L24.9744 28.3703L25.0527 28.3104L25.1299 28.2499L25.2069 28.1885L25.2831 28.1265L25.3583 28.064L25.4332 28.0004L25.5071 27.9365L25.5802 27.872L25.6529 27.8064L25.7245 27.7406L25.7956 27.674L25.8659 27.6067L25.9353 27.5389L26.0041 27.4704L26.0721 27.4013L26.1393 27.3315L26.2056 27.2613L26.2712 27.1904L26.3361 27.1189L26.4 27.047L26.4634 26.9743L26.5258 26.9012L26.5873 26.8275L26.6482 26.7532L26.708 26.6786L26.7672 26.6033L26.8255 26.5275L26.883 26.4512L26.9396 26.3744L26.9953 26.2974L27.0503 26.2194L27.1043 26.1414L27.1575 26.0627L27.21 25.9835L27.2612 25.9042L27.312 25.8242L27.3617 25.7437L27.4106 25.663L27.4585 25.5818L27.5057 25.5001L27.5518 25.4184L27.5972 25.3358L27.6416 25.2532L27.685 25.1702L27.7277 25.0865L27.7693 25.0031L27.8102 24.9187L27.85 24.8346L27.8892 24.7496L27.9271 24.6648L27.9643 24.5793L28.0006 24.4938L28.0358 24.408L28.0703 24.3218L28.1038 24.2354L28.1362 24.1489L28.1679 24.0619L28.1985 23.9748L28.2283 23.8875L28.2571 23.8L28.2851 23.7122L28.3121 23.6243L28.3381 23.5363L28.3632 23.4479L28.3872 23.3595L28.4105 23.2709L28.4327 23.1822L28.4541 23.0934L28.4745 23.0043L28.4939 22.9152L28.5125 22.826L28.53 22.7368L28.5466 22.6474L28.5623 22.5577L28.577 22.4684L28.5909 22.3787L28.6037 22.289L28.6156 22.1994L28.6266 22.1097L28.6366 22.0197L28.6457 21.9304L28.6539 21.8403L28.6612 21.7505L28.6674 21.661L28.6728 21.5712L28.6772 21.4815L28.6807 21.392L28.6832 21.3022L28.6848 21.2129L28.6855 21.1233L28.6853 21.0339L28.6842 20.9445L28.6821 20.8555L28.679 20.7664L28.6751 20.6774L28.6702 20.5887L28.6645 20.4998L28.6578 20.4112L28.6503 20.323L28.6418 20.2345L28.6323 20.1466L28.622 20.0585L28.6108 19.9709L28.5987 19.8834L28.5857 19.7959L28.5718 19.7088L28.5571 19.622L28.5414 19.5354L28.5248 19.449L28.5074 19.3625L28.489 19.2767L28.4699 19.1912L28.4499 19.1057L28.4289 19.0205L28.4072 18.9359L28.3845 18.8511L28.361 18.767L28.3367 18.683L28.3115 18.5995L28.2855 18.5162L28.2586 18.4332L28.2309 18.3507L28.2025 18.2685L28.173 18.1864L28.143 18.1051L28.1119 18.0239L28.0801 17.9433L28.0476 17.8628L28.0141 17.7827L27.98 17.7034L27.9449 17.6241L27.9092 17.5454L27.8727 17.4673L27.8353 17.3893L27.7971 17.3117L27.7584 17.2349L27.7187 17.1583L27.6784 17.0824L27.6373 17.0069L27.5953 16.9315L27.5529 16.8571L27.5095 16.7829L27.4654 16.7094L27.4206 16.6361L27.3752 16.5636L27.3289 16.4914L27.2821 16.4199L27.2345 16.3489L27.1863 16.2784L27.1372 16.2084L27.0876 16.139L27.0374 16.0703L26.9863 16.0018L26.9347 15.9342L26.8824 15.867L26.8296 15.8005L26.776 15.7344L26.7218 15.6691L26.6669 15.6043L26.6115 15.54L26.5556 15.4765L26.4988 15.4134L26.4417 15.3512L26.3838 15.2894L26.3256 15.2285L26.2665 15.1678L26.207 15.1081L26.1468 15.0487L26.0862 14.9903L26.0251 14.9324L25.9634 14.8752L25.9011 14.8185L25.8382 14.7627L25.775 14.7075L25.711 14.6528L25.647 14.5992L25.5821 14.5458L25.5168 14.4934L25.451 14.4416L25.3848 14.3904L25.3181 14.34L25.2512 14.2904L25.1834 14.2414L25.1152 14.1929L25.047 14.1455L24.9779 14.0985L24.9088 14.0526L24.8392 14.0072L24.769 13.9624L24.6984 13.9185L24.6278 13.8754L24.5563 13.8328L24.4848 13.7912L24.4127 13.7501L24.3406 13.71L24.2679 13.6705L24.1949 13.6317L24.1215 13.5937L24.048 13.5566L23.974 13.5201L23.8997 13.4844L23.8252 13.4495L23.7506 13.4154L23.6752 13.3818L23.6001 13.3493L23.5245 13.3174L23.4485 13.2863L23.3724 13.256L23.2962 13.2265L23.2197 13.1978L23.1427 13.1697L23.0659 13.1426L22.9886 13.1162L22.9111 13.0905L22.8338 13.0657L22.756 13.0417L22.6783 13.0185L22.5999 12.9959L22.5218 12.9743L22.4435 12.9534L22.3651 12.9333L22.2865 12.9139L22.2076 12.8954L22.1288 12.8776L22.0501 12.8607L21.971 12.8445L21.8917 12.8291L21.8129 12.8146L21.7335 12.8008L21.6543 12.7878L21.5747 12.7755L21.4956 12.7642L21.4159 12.7534L21.3367 12.7437L21.2572 12.7346L21.1777 12.7264L21.0984 12.7189L21.0188 12.7122L20.9396 12.7063L20.8599 12.7012L20.7806 12.6968L20.7015 12.6933L20.6219 12.6905L20.5429 12.6885L20.4638 12.6873L20.3847 12.6868L20.3307 12.687L20.3717 16.1192L20.3961 16.1193L20.4415 16.1199L20.487 16.121L20.5326 16.1224L20.5782 16.1245L20.6239 16.127L20.6696 16.1299L20.7154 16.1334L20.7611 16.1373L20.807 16.1416L20.8529 16.1465L20.8988 16.1517L20.9447 16.1575L20.9906 16.1638L21.0366 16.1705L21.0825 16.1778L21.1285 16.1855L21.1743 16.1937L21.2203 16.2025L21.2662 16.2115L21.3121 16.2213L21.3579 16.2314L21.4038 16.242L21.4495 16.2531L21.4953 16.2646L21.5409 16.2767L21.5865 16.2893L21.6321 16.3023L21.6776 16.3158L21.7231 16.3298L21.7684 16.3444L21.8137 16.3594L21.8588 16.3748L21.904 16.3907L21.9489 16.4072L21.9938 16.4241L22.0386 16.4414L22.0832 16.4594L22.1277 16.4777L22.1722 16.4965L22.2165 16.5159L22.2606 16.5357L22.3046 16.556L22.3485 16.5768L22.3922 16.598L22.4358 16.6197L22.4791 16.642L22.5223 16.6646L22.5653 16.6878L22.6082 16.7115L22.6508 16.7355L22.6933 16.7601L22.7355 16.7851L22.7776 16.8106L22.8195 16.8366L22.8611 16.8631L22.9025 16.8899L22.9437 16.9173L22.9847 16.9452L23.0255 16.9734L23.0659 17.0022L23.1062 17.0314L23.1462 17.061L23.186 17.0911L23.2254 17.1216L23.2647 17.1526L23.3036 17.1841L23.3423 17.2159L23.3807 17.2483L23.4188 17.281L23.4566 17.3142L23.4942 17.3478L23.5313 17.3819L23.5682 17.4164L23.6048 17.4513L23.6411 17.4866L23.677 17.5224L23.7126 17.5585L23.748 17.5951L23.7828 17.6321L23.8175 17.6695L23.8517 17.7074L23.8857 17.7455L23.9192 17.7842L23.9523 17.8232L23.9852 17.8625L24.0176 17.9024L24.0497 17.9425L24.0813 17.9831L24.1126 18.0241L24.1436 18.0654L24.1741 18.1071L24.2041 18.1491L24.2339 18.1915L24.2632 18.2344L24.292 18.2775L24.3205 18.321L24.3486 18.3649L24.3761 18.4091L24.4033 18.4536L24.4301 18.4985L24.4564 18.5437L24.4823 18.5893L24.5076 18.6352L24.5326 18.6814L24.5572 18.7279L24.5811 18.7747L24.6048 18.8218L24.6278 18.8693L24.6505 18.9171L24.6726 18.9651L24.6943 19.0135L24.7156 19.0621L24.7362 19.111L24.7565 19.1602L24.7762 19.2096L24.7954 19.2594L24.8142 19.3094L24.8324 19.3596L24.8501 19.4102L24.8673 19.4609L24.8839 19.5119L24.9 19.5632L24.9157 19.6146L24.9308 19.6664L24.9454 19.7184L24.9595 19.7704L24.973 19.8228L24.9859 19.8754L24.9984 19.9283L25.0103 19.9812L25.0216 20.0344L25.0324 20.0878L25.0426 20.1413L25.0523 20.1951L25.0615 20.249L25.0701 20.303L25.078 20.3573L25.0855 20.4116L25.0923 20.4662L25.0986 20.5209L25.1044 20.5757L25.1095 20.6306L25.1141 20.6857L25.1181 20.741L25.1215 20.7963L25.1244 20.8517L25.1266 20.9073L25.1283 20.9629L25.1293 21.0186L25.1299 21.0744L25.1297 21.1303L25.129 21.1863L25.1278 21.2424L25.1258 21.2984L25.1234 21.3546L25.1202 21.4108L25.1166 21.4671L25.1123 21.5234L25.1073 21.5797L25.1018 21.6361L25.0958 21.6924L25.089 21.7488L25.0817 21.8053L25.0738 21.8617L25.0653 21.9181L25.0562 21.9744L25.0464 22.0308L25.036 22.0872L25.025 22.1435L25.0135 22.1998L25.0012 22.2561L24.9884 22.3123L24.975 22.3684L24.9609 22.4245L24.9463 22.4806L24.9311 22.5365L24.9152 22.5924L24.8987 22.6482L24.8816 22.7039L24.8639 22.7595L24.8456 22.815L24.8266 22.8704L24.8071 22.9257L24.7869 22.9808L24.7661 23.0359L24.7448 23.0907L24.7228 23.1455L24.7002 23.2001L24.677 23.2545L24.6532 23.3088L24.6288 23.363L24.6038 23.4169L24.5781 23.4706L24.5518 23.5243L24.5251 23.5776L24.4976 23.6308L24.4696 23.6838L24.441 23.7365L24.4118 23.7891L24.382 23.8414L24.3516 23.8935L24.3206 23.9454L24.2891 23.997L24.2568 24.0484L24.2242 24.0995L24.1908 24.1504L24.1569 24.201L24.1224 24.2513L24.0874 24.3014L24.0518 24.3511L24.0155 24.4005L23.9788 24.4497L23.9414 24.4985L23.9035 24.5471L23.8651 24.5954L23.8261 24.6433L23.7865 24.6908L23.7464 24.7381L23.7058 24.785L23.6645 24.8315L23.6227 24.8777L23.5804 24.9236L23.5376 24.9691L23.4943 25.0142L23.4503 25.059L23.4059 25.1034L23.3609 25.1473L23.3155 25.1909L23.2695 25.2341L23.223 25.2768L23.176 25.3192L23.1285 25.3612L23.0805 25.4027L23.032 25.4438L22.983 25.4844L22.9335 25.5247L22.8835 25.5645L22.833 25.6038L22.7821 25.6427L22.7308 25.6812L22.6788 25.7192L22.6266 25.7566L22.5737 25.7936L22.5205 25.8303L22.4668 25.8663L22.4127 25.9019L22.3581 25.9369L22.3031 25.9715L22.2476 26.0056L22.1917 26.0392L22.1354 26.0722L22.0788 26.1047L22.0216 26.1367L21.964 26.1682L21.9062 26.1992L21.8479 26.2295L21.7892 26.2595L21.73 26.2887L21.6706 26.3175L21.6107 26.3457L21.5505 26.3734L21.49 26.4005L21.429 26.4269L21.3677 26.4529L21.3061 26.4783L21.2441 26.503L21.1818 26.5272L21.1191 26.5508L21.0561 26.5738L20.9929 26.5963L20.9293 26.6181L20.8654 26.6393L20.8012 26.6599L20.7368 26.6798L20.6721 26.6992L20.607 26.718L20.5417 26.7361L20.4761 26.7536L20.4103 26.7704L20.3442 26.7867L20.2778 26.8023L20.2112 26.8173L20.1444 26.8315L20.0774 26.8453L20.0101 26.8583L19.9426 26.8706L19.875 26.8824L19.807 26.8934L19.739 26.9038L19.6707 26.9135L19.6023 26.9226L19.5336 26.9311L19.4649 26.9388L19.3959 26.9458L19.3268 26.9523L19.2576 26.9579L19.1882 26.963L19.1186 26.9673L19.049 26.971L18.9792 26.974L18.9094 26.9763L18.8393 26.9778L18.7693 26.9787L18.6992 26.979L18.6289 26.9785L18.5586 26.9774L18.4882 26.9754L18.4178 26.9729L18.3473 26.9696L18.2767 26.9656L18.2061 26.961L18.1355 26.9556L18.0649 26.9495L17.9943 26.9427L17.9237 26.9353L17.853 26.927L17.7824 26.9181L17.7117 26.9084L17.6411 26.8982L17.5705 26.8871L17.5 26.8754L17.4295 26.8629L17.3591 26.8497L17.2887 26.8359L17.2184 26.8213L17.1482 26.806L17.078 26.7899L17.008 26.7732L16.9379 26.7558L16.8681 26.7376L16.7984 26.7187L16.7287 26.6992L16.6593 26.6789L16.5899 26.6579L16.5207 26.6362L16.4517 26.6138L16.3827 26.5907L16.3141 26.5669L16.2455 26.5424L16.1771 26.5171L16.109 26.4912L16.0409 26.4645L15.9732 26.4372L15.9056 26.4092L15.8383 26.3804L15.7712 26.351L15.7043 26.3209L15.6377 26.2901L15.5712 26.2585L15.5051 26.2264L15.4393 26.1934L15.3738 26.1599L15.3085 26.1256L15.2435 26.0907L15.1787 26.0551L15.1144 26.0188L15.0502 25.9818L14.9865 25.9442L14.923 25.9059L14.8599 25.8669L14.7971 25.8273L14.7347 25.787L14.6726 25.746L14.6109 25.7044L14.5496 25.6621L14.4887 25.6192L14.428 25.5756L14.3679 25.5314L14.3081 25.4865L14.2488 25.4411L14.1898 25.3949L14.1313 25.3482L14.0732 25.3008L14.0155 25.2528L13.9583 25.2042L13.9015 25.1549L13.8452 25.1051L13.7893 25.0546L13.7339 25.0035L13.679 24.9519L13.6246 24.8996L13.5706 24.8468L13.5172 24.7934L13.4643 24.7394L13.4118 24.6847L13.3599 24.6296L13.3086 24.5738L13.2577 24.5175L13.2074 24.4607L13.1577 24.4033L13.1084 24.3454L13.0597 24.2868L13.0116 24.2277L12.9641 24.1682L12.9172 24.1081L12.8707 24.0474L12.825 23.9863L12.7798 23.9246L12.7352 23.8624L12.6912 23.7997L12.6478 23.7365L12.605 23.6729L12.5629 23.6087L12.5214 23.5441L12.4805 23.479L12.4403 23.4135L12.4007 23.3474L12.3618 23.2809L12.3235 23.2139L12.2859 23.1465L12.2489 23.0787L12.2126 23.0105L12.177 22.9417L12.142 22.8726L12.1078 22.8032L12.0743 22.7332L12.0414 22.6629L12.0093 22.5922L11.9779 22.5211L11.9471 22.4495L11.9171 22.3777L11.8878 22.3054L11.8592 22.2329L11.8314 22.1599L11.8043 22.0866L11.778 22.013L11.7523 21.9391L11.7274 21.8648L11.7034 21.7902L11.68 21.7153L11.6574 21.6401L11.6355 21.5645L11.6145 21.4887L11.5942 21.4126L11.5746 21.3363L11.556 21.2596L11.538 21.1828L11.5208 21.1056L11.5044 21.0283L11.4888 20.9506L11.474 20.8728L11.46 20.7947L11.4468 20.7164L11.4345 20.638L11.4228 20.5593L11.412 20.4804L11.4021 20.4014L11.393 20.3222L11.3846 20.2427L11.3771 20.1632L11.3705 20.0835L11.3646 20.0036L11.3596 19.9236L11.3553 19.8435L11.352 19.7634L11.3494 19.683L11.3477 19.6025L11.3469 19.5221L11.3468 19.4414L11.3477 19.3607L11.3494 19.28L11.3519 19.1992L11.3553 19.1183L11.3595 19.0374L11.3645 18.9565L11.3704 18.8755L11.3771 18.7945L11.3847 18.7135L11.3932 18.6325L11.4025 18.5514L11.4127 18.4704L11.4236 18.3895L11.4356 18.3086L11.4483 18.2277L11.4619 18.1469L11.4763 18.0661L11.4916 17.9854L11.5078 17.9047L11.5248 17.8242L11.5427 17.7437L11.5614 17.6634L11.5809 17.5832L11.6014 17.503L11.6227 17.423L11.6449 17.3432L11.6678 17.2634L11.6916 17.1838L11.7164 17.1044L11.7419 17.0252L11.7683 16.9461L11.7956 16.8673L11.8237 16.7885L11.8526 16.7101L11.8824 16.6318L11.913 16.5538L11.9445 16.476L11.9768 16.3984L12.01 16.3211L12.044 16.244L12.0788 16.1672L12.1145 16.0906L12.151 16.0144L12.1883 15.9384L12.2264 15.8627L12.2653 15.7874L12.3052 15.7124L12.3457 15.6376L12.3872 15.5633L12.4294 15.4892L12.4725 15.4155L12.5163 15.3422L12.561 15.2692L12.6064 15.1965L12.6527 15.1244L12.6998 15.0524L12.7476 14.981L12.7962 14.91L12.8456 14.8394L12.8958 14.7692L12.9468 14.6994L12.9985 14.6301L13.051 14.5612L13.1043 14.4928L13.1583 14.4248L13.2132 14.3574L13.2687 14.2903L13.325 14.2238L13.382 14.1577L13.4398 14.0922L13.4983 14.0272L13.5575 13.9626L13.6175 13.8987L13.6782 13.8353L13.7396 13.7724L13.8017 13.71L13.8645 13.6482L13.928 13.5869L13.9922 13.5263L14.0571 13.4662L14.1227 13.4066L14.1889 13.3477L14.2558 13.2894L14.3235 13.2317L14.3917 13.1745L14.4606 13.1181L14.5301 13.0623L14.6004 13.007L14.6711 12.9524L14.7426 12.8985L14.8147 12.8453L14.8874 12.7926L14.9607 12.7407L15.0346 12.6894L15.1092 12.6388L15.1843 12.5889L15.2599 12.5397L15.3362 12.4913L15.4131 12.4434L15.4905 12.3964L15.5685 12.35L15.647 12.3044L15.7261 12.2595L15.8056 12.2153L15.8858 12.1718L15.9664 12.1292L16.0475 12.0873L16.1292 12.0461L16.2113 12.0057L16.294 11.9661L16.3771 11.9273L16.4607 11.8892L16.5448 11.8519L16.6293 11.8154L16.7144 11.7797L16.7998 11.7448L16.8856 11.7108L16.9719 11.6775L17.0586 11.6451L17.1457 11.6135L17.2332 11.5827L17.3212 11.5527L17.4095 11.5236L17.4982 11.4954L17.5872 11.4679L17.6766 11.4414L17.7664 11.4156L17.8565 11.3908L17.9469 11.3668L18.0376 11.3436L18.1287 11.3214L18.2201 11.3L18.3119 11.2795L18.4038 11.2599L18.4961 11.2412L18.5886 11.2234L18.635 11.2148ZM19.772 17.8151L18.7167 18.0654L18.6548 12.875L18.605 12.8861L18.5301 12.9036L18.4553 12.9219L18.3811 12.9408L18.3069 12.9605L18.2332 12.9808L18.1595 13.002L18.0865 13.0236L18.0134 13.0462L17.9411 13.0692L17.8687 13.0931L17.7968 13.1176L17.7252 13.1428L17.6538 13.1686L17.5832 13.1951L17.5126 13.2224L17.4423 13.2502L17.3726 13.2786L17.3029 13.3079L17.2341 13.3375L17.1654 13.3681L17.0973 13.3991L17.0292 13.4309L16.9618 13.4632L16.8946 13.4962L16.8282 13.5297L16.762 13.5639L16.6962 13.5987L16.6309 13.6341L16.566 13.6701L16.5016 13.7067L16.4378 13.7438L16.374 13.7817L16.311 13.82L16.2486 13.8589L16.1865 13.8984L16.1248 13.9385L16.0637 13.9791L16.0031 14.0203L15.943 14.0619L15.8835 14.1041L15.8242 14.1469L15.7656 14.1903L15.7076 14.2341L15.65 14.2785L15.593 14.3232L15.5366 14.3685L15.4806 14.4144L15.4251 14.4609L15.3704 14.5076L15.3161 14.555L15.2623 14.6027L15.2091 14.651L15.1565 14.6998L15.1045 14.749L15.053 14.7985L15.002 14.8487L14.9518 14.8992L14.902 14.9502L14.853 15.0015L14.8043 15.0534L14.7564 15.1055L14.709 15.1582L14.6623 15.2113L14.6162 15.2645L14.5706 15.3184L14.5258 15.3725L14.4814 15.4272L14.4378 15.482L14.3947 15.5374L14.3523 15.5931L14.3106 15.649L14.2694 15.7053L14.2289 15.7619L14.189 15.819L14.1497 15.8763L14.1112 15.934L14.0733 15.9918L14.036 16.05L13.9993 16.1086L13.9634 16.1674L13.928 16.2266L13.8933 16.2858L13.8593 16.3455L13.8259 16.4054L13.7933 16.4655L13.7612 16.5259L13.7299 16.5865L13.6992 16.6475L13.6692 16.7084L13.6398 16.7699L13.6112 16.8314L13.5832 16.8931L13.5559 16.955L13.5292 17.0172L13.5033 17.0794L13.478 17.1419L13.4535 17.2045L13.4295 17.2674L13.4063 17.3302L13.3838 17.3934L13.3619 17.4566L13.3408 17.52L13.3203 17.5835L13.3005 17.6472L13.2814 17.7109L13.2631 17.7746L13.2453 17.8386L13.2282 17.9027L13.2119 17.9668L13.1962 18.031L13.1812 18.0953L13.1669 18.1596L13.1534 18.2241L13.1405 18.2884L13.1282 18.3529L13.1167 18.4175L13.1059 18.482L13.0957 18.5465L13.0862 18.6113L13.0774 18.6757L13.0693 18.7404L13.0619 18.8049L13.0551 18.8695L13.0491 18.9343L13.0437 18.9987L13.039 19.0633L13.035 19.1278L13.0316 19.1922L13.0289 19.2565L13.0269 19.3208L13.0256 19.3852L13.0249 19.4494L13.025 19.5134L13.0256 19.5774L13.027 19.6415L13.029 19.7053L13.0317 19.769L13.035 19.8326L13.039 19.8961L13.0437 19.9595L13.049 20.0227L13.0549 20.0858L13.0615 20.1489L13.0688 20.2115L13.0766 20.2744L13.0852 20.3367L13.0944 20.3992L13.1042 20.4613L13.1146 20.5233L13.1257 20.5852L13.1374 20.6467L13.1498 20.7082L13.1627 20.7693L13.1764 20.8304L13.1905 20.8911L13.2054 20.9517L13.2208 21.0119L13.2369 21.0722L13.2534 21.1319L13.2707 21.1916L13.2885 21.2509L13.3069 21.3101L13.326 21.3689L13.3456 21.4274L13.3658 21.4858L13.3866 21.5438L13.4079 21.6015L13.4298 21.659L13.4523 21.7162L13.4754 21.773L13.499 21.8295L13.5231 21.8857L13.5479 21.9417L13.5732 21.9974L13.599 22.0526L13.6254 22.1075L13.6522 22.1621L13.6797 22.2165L13.7076 22.2704L13.736 22.3239L13.7651 22.3772L13.7946 22.43L13.8247 22.4825L13.8552 22.5347L13.8862 22.5864L13.9178 22.6378L13.9497 22.6888L13.9823 22.7394L14.0153 22.7896L14.0487 22.8394L14.0827 22.889L14.117 22.9378L14.1519 22.9865L14.1872 23.0347L14.223 23.0824L14.2593 23.1299L14.2959 23.1768L14.333 23.2233L14.3706 23.2694L14.4085 23.3151L14.4468 23.3602L14.4857 23.405L14.5249 23.4494L14.5645 23.4932L14.6047 23.5366L14.645 23.5795L14.6858 23.6221L14.727 23.6641L14.7685 23.7056L14.8105 23.7467L14.8528 23.7874L14.8955 23.8275L14.9385 23.8672L14.9819 23.9064L15.0257 23.9451L15.0697 23.9833L15.1141 24.021L15.1588 24.0583L15.2038 24.095L15.2492 24.1313L15.295 24.167L15.3409 24.2022L15.3872 24.2369L15.4338 24.2712L15.4807 24.3049L15.5278 24.3381L15.5753 24.3708L15.623 24.403L15.671 24.4346L15.7191 24.4657L15.7675 24.4964L15.8164 24.5265L15.8653 24.556L15.9145 24.5851L15.964 24.6136L16.0136 24.6415L16.0634 24.669L16.1136 24.696L16.1639 24.7224L16.2144 24.7482L16.265 24.7734L16.316 24.7983L16.3669 24.8224L16.4183 24.8462L16.4696 24.8694L16.5211 24.8919L16.5729 24.914L16.6248 24.9355L16.6767 24.9565L16.7289 24.977L16.7812 24.9968L16.8337 25.0162L16.8861 25.035L16.9389 25.0533L16.9916 25.0709L17.0444 25.0881L17.0974 25.1047L17.1505 25.1208L17.2036 25.1363L17.2568 25.1513L17.3102 25.1656L17.3636 25.1795L17.417 25.1928L17.4704 25.2056L17.5239 25.2178L17.5775 25.2294L17.6311 25.2406L17.6848 25.2512L17.7384 25.2613L17.7921 25.2707L17.8458 25.2797L17.8996 25.2881L17.9533 25.296L18.0069 25.3033L18.0606 25.31L18.1143 25.3163L18.168 25.322L18.2217 25.3271L18.2753 25.3317L18.3289 25.3358L18.3824 25.3394L18.4359 25.3424L18.4893 25.3448L18.5426 25.3468L18.5961 25.3482L18.6492 25.3491L18.7023 25.3494L18.7554 25.3493L18.8083 25.3486L18.8613 25.3474L18.9141 25.3456L18.9667 25.3434L19.0192 25.3406L19.0719 25.3374L19.1241 25.3335L19.1764 25.3293L19.2284 25.3244L19.2804 25.3192L19.3322 25.3133L19.3837 25.307L19.4354 25.3002L19.4867 25.2928L19.5377 25.285L19.5889 25.2767L19.6397 25.2679L19.6904 25.2586L19.7409 25.2488L19.7913 25.2385L19.8413 25.2278L19.8911 25.2166L19.9409 25.2049L19.9904 25.1927L20.0397 25.1802L20.0887 25.1671L20.1375 25.1535L20.1863 25.1394L20.2347 25.125L20.2827 25.1101L20.3308 25.0946L20.3784 25.0788L20.4259 25.0626L20.473 25.0459L20.5199 25.0287L20.5667 25.0111L20.6131 24.9931L20.6591 24.9746L20.705 24.9558L20.7506 24.9364L20.796 24.9167L20.8409 24.8966L20.8858 24.8761L20.9302 24.8552L20.9742 24.8338L21.0182 24.8121L21.0615 24.79L21.1049 24.7674L21.1478 24.7445L21.1904 24.7212L21.2326 24.6975L21.2746 24.6734L21.3163 24.649L21.3575 24.6242L21.3984 24.599L21.439 24.5734L21.4793 24.5476L21.5193 24.5214L21.5589 24.4948L21.5982 24.4678L21.6371 24.4405L21.6755 24.413L21.7137 24.385L21.7515 24.3567L21.789 24.3281L21.8261 24.2992L21.8629 24.2699L21.8991 24.2404L21.9351 24.2106L21.9706 24.1804L22.0058 24.15L22.0407 24.1193L22.0751 24.0882L22.1092 24.0569L22.1427 24.0254L22.176 23.9934L22.2089 23.9613L22.2414 23.9289L22.2734 23.8963L22.305 23.8633L22.3362 23.8302L22.3672 23.7966L22.3975 23.7631L22.4276 23.7291L22.4572 23.6949L22.4863 23.6606L22.5152 23.6259L22.5434 23.5912L22.5714 23.5561L22.599 23.5209L22.626 23.4854L22.6527 23.4497L22.6789 23.414L22.7047 23.3778L22.7302 23.3415L22.7551 23.3053L22.7796 23.2685L22.8038 23.2318L22.8273 23.1949L22.8506 23.1578L22.8734 23.1205L22.8957 23.0831L22.9177 23.0455L22.9391 23.0078L22.9602 22.97L22.9808 22.9319L23.0009 22.8939L23.0206 22.8556L23.0399 22.8173L23.0588 22.7788L23.0772 22.7401L23.0952 22.7014L23.1126 22.6626L23.1297 22.6238L23.1463 22.5847L23.1624 22.5457L23.1783 22.5064L23.1935 22.4674L23.2084 22.4277L23.2227 22.3887L23.2367 22.3491L23.2503 22.3094L23.2633 22.27L23.2759 22.2304L23.2881 22.1908L23.2999 22.1508L23.311 22.1114L23.322 22.0713L23.3324 22.0318L23.3424 21.9918L23.3519 21.9518L23.3609 21.9121L23.3696 21.8724L23.3778 21.8323L23.3856 21.7925L23.3929 21.7524L23.3998 21.7128L23.4063 21.673L23.4123 21.6331L23.4179 21.5932L23.423 21.5534L23.4278 21.5137L23.4321 21.4742L23.4359 21.4343L23.4394 21.3947L23.4424 21.3551L23.445 21.3155L23.4472 21.2761L23.4489 21.2367L23.4502 21.1975L23.4511 21.1581L23.4517 21.1187L23.4518 21.0797L23.4514 21.0407L23.4507 21.0018L23.4495 20.963L23.4479 20.924L23.4459 20.8857L23.4435 20.8466L23.4408 20.8085L23.4376 20.7703L23.434 20.7317L23.43 20.6936L23.4257 20.6559L23.4208 20.6176L23.4157 20.5802L23.4101 20.5425L23.4043 20.5053L23.3978 20.4677L23.3912 20.4304L23.3841 20.3935L23.3767 20.3567L23.3688 20.3198L23.3606 20.2834L23.3521 20.2469L23.3431 20.2107L23.3338 20.1748L23.324 20.1386L23.3142 20.1032L23.3037 20.0674L23.293 20.0322L23.2819 19.997L23.2705 19.9621L23.2587 19.9273L23.2465 19.8925L23.2341 19.8584L23.2213 19.8243L23.2081 19.7901L23.1947 19.7564L23.1809 19.7226L23.1668 19.6896L23.1523 19.6563L23.1376 19.6234L23.1225 19.5909L23.1071 19.5584L23.0915 19.5262L23.0755 19.4942L23.0592 19.4624L23.0426 19.4309L23.0257 19.3996L23.0085 19.3686L22.9911 19.3378L22.9732 19.3073L22.9553 19.277L22.9369 19.247L22.9183 19.2171L22.8994 19.1877L22.8803 19.1585L22.8609 19.1295L22.8412 19.1006L22.8213 19.0723L22.8011 19.044L22.7807 19.0161L22.76 18.9885L22.739 18.9611L22.7179 18.934L22.6964 18.9071L22.6748 18.8806L22.6529 18.8544L22.6309 18.8284L22.6085 18.8026L22.5861 18.7773L22.5633 18.7522L22.5403 18.7274L22.5171 18.7027L22.4938 18.6785L22.4702 18.6546L22.4464 18.6309L22.4225 18.6076L22.3983 18.5846L22.374 18.5619L22.3493 18.5394L22.3248 18.5173L22.2999 18.4954L22.2749 18.4739L22.2496 18.4526L22.2242 18.4318L22.1987 18.4112L22.1731 18.3909L22.1472 18.3709L22.1212 18.3512L22.0952 18.3319L22.0689 18.3128L22.0424 18.2941L22.016 18.2757L21.9893 18.2575L21.9626 18.2398L21.9357 18.2224L21.9086 18.2052L21.8815 18.1884L21.8542 18.1718L21.8269 18.1556L21.7995 18.1398L21.772 18.1243L21.7442 18.109L21.7166 18.0941L21.6888 18.0794L21.6609 18.0652L21.6331 18.0513L21.6049 18.0375L21.5768 18.0243L21.5486 18.0114L21.5204 17.9986L21.4921 17.9863L21.4637 17.9742L21.4355 17.9625L21.4069 17.9512L21.3783 17.9401L21.3499 17.9294L21.3213 17.9189L21.2927 17.9088L21.2641 17.899L21.2354 17.8894L21.2069 17.8804L21.1781 17.8714L21.1494 17.8629L21.1208 17.8547L21.0919 17.8468L21.0633 17.8393L21.0345 17.832L21.0058 17.825L20.977 17.8184L20.9484 17.812L20.9196 17.806L20.891 17.8003L20.8624 17.7948L20.8338 17.7897L20.8051 17.7849L20.7767 17.7805L20.748 17.7763L20.7197 17.7724L20.6911 17.7687L20.6627 17.7654L20.6345 17.7624L20.6061 17.7598L20.5779 17.7574L20.5497 17.7553L20.5216 17.7534L20.4935 17.7519L20.4655 17.7507L20.4378 17.7498L20.4098 17.7491L20.3821 17.7487L20.3544 17.7486L20.3268 17.7489L20.2992 17.7494L20.2719 17.7501L20.2445 17.7512L20.2174 17.7525L20.1901 17.7541L20.1632 17.7559L20.1363 17.758L20.1094 17.7604L20.0828 17.7631L20.0561 17.766L20.0297 17.7692L20.0033 17.7726L19.9771 17.7764L19.9509 17.7804L19.925 17.7845L19.8991 17.789L19.8736 17.7937L19.8479 17.7987L19.8225 17.8039L19.7971 17.8094L19.772 17.8151Z" fill="white"/>
</svg>
