<svg width="147" height="34" viewBox="0 0 147 34" fill="none" xmlns="http://www.w3.org/2000/svg">
<path d="M25.8006 14.4531C28.6883 14.4531 29.338 15.7188 29.338 17.2973C29.338 18.9706 28.5521 20.1694 25.8126 20.1694C23.0905 20.1694 22.3037 19.0403 22.3037 17.2973C22.3037 15.5823 23.1613 14.4531 25.8006 14.4531Z" fill="white"/>
<path d="M55.9791 14.4531C58.8669 14.4531 59.5166 15.7188 59.5166 17.2973C59.5166 18.9706 58.7298 20.1694 55.9911 20.1694C53.2699 20.1694 52.4822 19.0403 52.4822 17.2973C52.4822 15.5823 53.3399 14.4531 55.9791 14.4531Z" fill="white"/>
<path fill-rule="evenodd" clip-rule="evenodd" d="M0.233215 33.7497V0.829102H146.164V33.7497H0.233215ZM69.7836 31.8926H144.324V2.68624H69.7836V31.8926ZM25.8144 22.9718C30.9411 22.9718 33.0963 20.7405 33.0963 17.2555C33.0963 13.714 30.6687 11.6089 25.8144 11.6089C21.0347 11.6089 18.5187 13.895 18.5187 17.2555C18.5187 21.0478 21.158 22.9718 25.8144 22.9718ZM7.99018 11.8596V22.8047H18.3374V19.8899H11.7337V11.8596H7.99018ZM44.6767 22.8047L44.5801 21.7442C43.3277 22.6461 41.8034 23.0801 40.2687 22.9718C37.9617 22.9718 36.0402 22.2745 34.9626 20.8667C34.2518 19.839 33.8929 18.6053 33.9402 17.353C33.8998 16.127 34.2711 14.9232 34.9939 13.9368C36.0844 12.5709 38.061 11.6646 41.004 11.6646C44.3896 11.6646 46.3791 12.7102 47.235 14.467C47.4186 14.8808 47.5266 15.3247 47.5534 15.7772H43.9718C43.8815 15.5022 43.7136 15.2598 43.4886 15.0799C42.7752 14.6026 41.9232 14.3819 41.0702 14.4531C40.5699 14.3919 40.0623 14.4385 39.5812 14.59C39.1001 14.7414 38.6563 14.9942 38.2791 15.3315C37.8509 15.923 37.6498 16.6512 37.7132 17.3809C37.6635 18.077 37.8484 18.7698 38.2377 19.3467C38.6182 19.7045 39.0706 19.9754 39.5641 20.1414C40.0576 20.3074 40.5806 20.3645 41.0979 20.3087C42.1251 20.393 43.145 20.0733 43.9442 19.4163C44.1158 19.1998 44.2341 18.9452 44.2893 18.6735H40.4353V16.3214H47.6472V22.8047H44.6767ZM55.9929 22.9718C61.1187 22.9718 63.2748 20.7405 63.2748 17.2555C63.2748 13.714 60.8435 11.6089 55.9929 11.6089C51.2132 11.6089 48.6972 13.895 48.6972 17.2555C48.6972 21.0478 51.3365 22.9718 55.9929 22.9718Z" fill="white"/>
<path d="M76.0893 22.7625V11.8174H78.758V22.7625H76.0893Z" fill="white"/>
<path d="M92.4623 18.19C91.7859 19.0824 90.6218 19.49 88.981 19.5002C88.635 19.5002 84.0475 19.4863 84.0475 19.4863V22.7632H81.4359V11.8182H88.9819C89.5867 11.7536 90.1985 11.8184 90.7764 12.0081C91.3552 12.1979 91.8871 12.5084 92.339 12.9195C92.9353 13.7034 93.2252 14.6808 93.1543 15.6662C93.215 16.5624 92.9712 17.4528 92.4623 18.19ZM90.3209 14.6215C90.0448 14.2037 89.4494 13.9715 88.4417 13.9715H84.0337V17.3032H88.4132C89.4908 17.3032 90.0586 17.0804 90.3209 16.6477C90.4764 16.3428 90.5436 15.9995 90.5141 15.6578C90.5371 15.3014 90.4709 14.945 90.3209 14.6215Z" fill="white"/>
<path d="M100.85 22.9297C95.9307 22.9297 94.4251 21.0726 94.4251 19.235H97.2162C97.2162 20.1412 98.4457 20.8247 100.975 20.8247C103.489 20.8247 104.152 20.378 104.152 19.6528C104.152 18.844 103.655 18.5933 101.32 18.3287C100.86 18.2869 99.607 18.1337 99.1368 18.064C95.8239 17.687 94.5485 16.6972 94.5485 14.9264C94.5485 13.0581 96.4147 11.6504 100.463 11.6504C104.857 11.6504 106.543 13.3933 106.543 15.2059H103.782C103.782 14.2857 102.746 13.7555 100.3 13.7555C97.785 13.7555 97.2466 14.1037 97.2466 14.7871C97.2466 15.4984 97.7988 15.7212 100.467 16.0416C101.076 16.1261 102.429 16.2793 102.802 16.3202C105.622 16.6127 106.893 17.6443 106.893 19.4708C106.888 21.6465 104.954 22.9297 100.85 22.9297Z" fill="white"/>
<path d="M114.752 22.9157C111.146 22.9157 108.797 21.4792 108.797 18.4585V11.8174H111.435V18.4957C111.435 19.8765 112.555 20.7957 114.862 20.7957C116.948 20.7957 118.192 19.9322 118.192 18.4957V11.8174H120.804V18.7065C120.804 21.4522 118.62 22.9157 114.752 22.9157Z" fill="white"/>
<path d="M135.105 22.7625V15.4565L131.719 22.7625H129.15L125.861 15.4565V22.7625H123.376V11.8174H126.742L130.473 20.155L134.286 11.8174H137.599V22.7625H135.105Z" fill="white"/>
</svg>
