<svg width="123" height="35" viewBox="0 0 123 35" fill="none" xmlns="http://www.w3.org/2000/svg">
<path d="M17.5 0C15.2019 0 12.9262 0.4527 10.803 1.3321C8.6798 2.2116 6.7507 3.5006 5.1256 5.1256C3.5006 6.7507 2.2116 8.6798 1.3321 10.803C0.4527 12.9262 0 15.2019 0 17.5C0 19.7981 0.4527 22.0738 1.3321 24.197C2.2116 26.3202 3.5006 28.2493 5.1256 29.8744C6.7507 31.4994 8.6798 32.7884 10.803 33.6679C12.9262 34.5473 15.2019 35 17.5 35V26.25C16.3509 26.25 15.2131 26.0237 14.1515 25.5839C13.0899 25.1442 12.1253 24.4997 11.3128 23.6872C10.5003 22.8747 9.8558 21.9101 9.4161 20.8485C8.9763 19.7869 8.75 18.6491 8.75 17.5C8.75 16.3509 8.9763 15.2131 9.4161 14.1515C9.8558 13.0899 10.5003 12.1253 11.3128 11.3128C12.1253 10.5003 13.0899 9.8558 14.1515 9.4161C15.2131 8.9763 16.3509 8.75 17.5 8.75V0Z" fill="white"/>
<path d="M17.5001 23.3336C20.7218 23.3336 23.3334 20.722 23.3334 17.5003C23.3334 14.2786 20.7218 11.667 17.5001 11.667C14.2784 11.667 11.6668 14.2786 11.6668 17.5003C11.6668 20.722 14.2784 23.3336 17.5001 23.3336Z" fill="white"/>
<path d="M0 17.5C0 19.7981 0.4527 22.0738 1.3321 24.197C2.2116 26.3202 3.5006 28.2493 5.1256 29.8744C6.7507 31.4994 8.6798 32.7884 10.803 33.6679C12.9262 34.5473 15.2019 35 17.5 35C19.7981 35 22.0738 34.5473 24.197 33.6679C26.3202 32.7884 28.2493 31.4994 29.8744 29.8744C31.4994 28.2493 32.7884 26.3202 33.6679 24.197C34.5473 22.0738 35 19.7981 35 17.5H26.25C26.25 18.6491 26.0237 19.7869 25.5839 20.8485C25.1442 21.9101 24.4997 22.8747 23.6872 23.6872C22.8747 24.4997 21.9101 25.1442 20.8485 25.5839C19.7869 26.0237 18.6491 26.25 17.5 26.25C16.3509 26.25 15.2131 26.0237 14.1515 25.5839C13.0899 25.1442 12.1253 24.4997 11.3128 23.6872C10.5003 22.8747 9.8558 21.9101 9.4161 20.8485C8.9763 19.7869 8.75 18.6491 8.75 17.5H0Z" fill="white"/>
<path d="M23.3334 17.5004C23.3334 15.9533 22.7188 14.4696 21.6249 13.3756C20.5309 12.2816 19.0472 11.667 17.5001 11.667C15.953 11.667 14.4693 12.2816 13.3753 13.3756C12.2813 14.4696 11.6667 15.9533 11.6667 17.5004H17.5001H23.3334Z" fill="white"/>
<path d="M44.1396 10.9248H41.9661V22.9998H44.1396V10.9248Z" fill="white"/>
<path d="M45.5589 18.7216C45.5589 21.5161 47.4909 23.2411 50.0439 23.2411C52.5969 23.2411 54.5289 21.5161 54.5289 18.7216C54.5289 15.9271 52.5969 14.2021 50.0439 14.2021C47.4909 14.2021 45.5589 15.9271 45.5589 18.7216ZM47.7324 18.7216C47.7324 17.0656 48.6984 16.0996 50.0439 16.0996C51.3894 16.0996 52.3554 17.0656 52.3554 18.7216C52.3554 20.3776 51.3894 21.3436 50.0439 21.3436C48.6984 21.3436 47.7324 20.3776 47.7324 18.7216Z" fill="white"/>
<path d="M62.296 14.4436V15.5993H62.1235C61.606 14.8576 60.778 14.2021 59.2945 14.2021C57.259 14.2021 55.4305 15.9271 55.4305 18.5836C55.4305 21.2401 57.259 22.9651 59.2945 22.9651C60.778 22.9651 61.606 22.2923 62.089 21.6196H62.2615V22.4476C62.2615 24.1036 61.2955 24.8626 59.881 24.8626C58.4665 24.8626 57.742 24.1036 57.4487 23.1203L55.4995 23.9656C55.948 25.2593 57.259 26.6911 59.9155 26.6911C62.641 26.6911 64.435 25.2593 64.435 22.4993V14.4436H62.296ZM59.95 21.1021C58.6045 21.1021 57.604 20.1361 57.604 18.5836C57.604 17.0311 58.6045 16.0651 59.95 16.0651C61.2955 16.0651 62.296 17.0311 62.296 18.5836C62.296 20.1361 61.2955 21.1021 59.95 21.1021Z" fill="white"/>
<path d="M65.8411 18.7216C65.8411 21.5161 67.7731 23.2411 70.3261 23.2411C72.8791 23.2411 74.811 21.5161 74.811 18.7216C74.811 15.9271 72.8791 14.2021 70.3261 14.2021C67.7731 14.2021 65.8411 15.9271 65.8411 18.7216ZM68.0146 18.7216C68.0146 17.0656 68.9806 16.0996 70.3261 16.0996C71.6716 16.0996 72.6376 17.0656 72.6376 18.7216C72.6376 20.3776 71.6716 21.3436 70.3261 21.3436C68.9806 21.3436 68.0146 20.3776 68.0146 18.7216Z" fill="white"/>
<path d="M76.517 11.9601C76.517 12.8399 77.19 13.4436 78.053 13.4436C78.915 13.4436 79.588 12.8399 79.588 11.9601C79.588 11.0804 78.915 10.4766 78.053 10.4766C77.19 10.4766 76.517 11.0804 76.517 11.9601ZM79.139 14.4441H76.966V23.0001H79.139V14.4441Z" fill="white"/>
<path d="M81.076 26.4496H83.25V21.8956H83.422C83.905 22.5856 84.733 23.2411 86.217 23.2411C88.252 23.2411 90.081 21.5161 90.081 18.7216C90.081 15.9271 88.252 14.2021 86.217 14.2021C84.733 14.2021 83.905 14.8576 83.388 15.5994H83.215V14.4436H81.076V26.4496ZM85.561 21.3781C84.216 21.3781 83.215 20.4121 83.215 18.7216C83.215 17.0311 84.216 16.0651 85.561 16.0651C86.907 16.0651 87.907 17.0311 87.907 18.7216C87.907 20.4121 86.907 21.3781 85.561 21.3781Z" fill="white"/>
<path d="M91.349 16.8414C91.349 18.5319 92.763 19.1529 94.557 19.4979L95.006 19.5841C96.075 19.7911 96.558 20.0499 96.558 20.6019C96.558 21.1539 96.075 21.5851 95.075 21.5851C94.074 21.5851 93.264 21.1711 93.039 19.9291L91.038 20.4466C91.332 22.2406 92.832 23.2411 95.075 23.2411C97.248 23.2411 98.663 22.2234 98.663 20.4294C98.663 18.6353 97.214 18.1524 95.282 17.7729L94.833 17.6866C93.936 17.5141 93.453 17.2726 93.453 16.7034C93.453 16.1859 93.902 15.8581 94.73 15.8581C95.558 15.8581 96.144 16.2031 96.351 17.1346L98.318 16.5309C97.904 15.1509 96.645 14.2021 94.73 14.2021C92.694 14.2021 91.349 15.1509 91.349 16.8414Z" fill="white"/>
<path d="M108.426 23.0003V14.4443H106.253V18.8603C106.253 20.4473 105.477 21.3788 104.148 21.3788C102.975 21.3788 102.32 20.7406 102.32 19.4468V14.4443H100.146V19.5503C100.146 21.6721 101.475 23.1383 103.476 23.1383C105.045 23.1383 105.77 22.4483 106.115 21.7238H106.287V23.0003H108.426Z" fill="white"/>
<path d="M110.354 14.4437V22.9997H112.528V17.8937C112.528 16.7207 113.08 16.0652 114.08 16.0652C114.943 16.0652 115.46 16.5482 115.46 17.4797V22.9997H117.634V17.8937C117.634 16.7207 118.186 16.0652 119.186 16.0652C120.049 16.0652 120.566 16.5482 120.566 17.4797V22.9997H122.74V17.3762C122.74 15.3062 121.463 14.3057 119.876 14.3057C118.479 14.3057 117.841 14.9267 117.427 15.6512H117.254C116.857 14.8405 116.15 14.3057 114.908 14.3057C113.666 14.3057 112.993 14.8577 112.666 15.5132H112.493V14.4437H110.354Z" fill="white"/>
</svg>
