<svg width="118" height="24" viewBox="0 0 118 24" fill="none" xmlns="http://www.w3.org/2000/svg">
<path d="M37.83 19.2045C37.2352 19.2368 36.6469 19.0677 36.16 18.7245C35.9566 18.5737 35.7929 18.3756 35.6831 18.1474C35.5733 17.9191 35.5208 17.6676 35.53 17.4145V8.14448C35.5252 8.10528 35.5293 8.06538 35.5422 8.02798C35.555 7.99058 35.5762 7.95668 35.6042 7.92868C35.6322 7.90068 35.6661 7.87948 35.7035 7.86668C35.7409 7.85378 35.7808 7.84968 35.82 7.85448H37.5C37.69 7.85448 37.78 7.95448 37.78 8.14448V16.6945C37.78 17.0745 37.95 17.2645 38.3 17.2645C38.4484 17.2706 38.5968 17.2538 38.74 17.2145C38.94 17.2145 39.05 17.2745 39.06 17.4545L39.21 18.7045C39.2172 18.741 39.2165 18.7785 39.208 18.8147C39.1995 18.8508 39.1833 18.8848 39.1605 18.9141C39.1378 18.9435 39.109 18.9677 39.0762 18.985C39.0433 19.0023 39.0071 19.0124 38.97 19.0145C38.602 19.1361 38.2175 19.2002 37.83 19.2045Z" fill="white"/>
<path d="M47.28 18.1347C46.4359 18.8322 45.375 19.2137 44.28 19.2137C43.185 19.2137 42.1242 18.8322 41.28 18.1347C40.5381 17.3857 40.1218 16.374 40.1218 15.3197C40.1218 14.2654 40.5381 13.2537 41.28 12.5047C42.1258 11.8108 43.186 11.4316 44.28 11.4316C45.374 11.4316 46.4342 11.8108 47.28 12.5047C48.0049 13.2606 48.4096 14.2674 48.4096 15.3147C48.4096 16.362 48.0049 17.3688 47.28 18.1247V18.1347ZM42.86 16.8147C43.2518 17.1696 43.7614 17.3661 44.29 17.3661C44.8186 17.3661 45.3283 17.1696 45.72 16.8147C46.0746 16.4071 46.2698 15.885 46.2698 15.3447C46.2698 14.8045 46.0746 14.2824 45.72 13.8747C45.3283 13.5199 44.8186 13.3233 44.29 13.3233C43.7614 13.3233 43.2518 13.5199 42.86 13.8747C42.5055 14.2824 42.3102 14.8045 42.3102 15.3447C42.3102 15.885 42.5055 16.4071 42.86 16.8147Z" fill="white"/>
<path d="M57.66 11.6846C57.85 11.6846 57.94 11.7846 57.94 11.9746V19.1446C57.9575 19.6286 57.8669 20.1103 57.6749 20.5548C57.4829 20.9994 57.1943 21.3956 56.83 21.7146C56.0214 22.4041 54.9816 22.7614 53.92 22.7146C52.9612 22.7483 52.0151 22.4865 51.21 21.9646C50.8662 21.7389 50.5725 21.4448 50.3472 21.1008C50.1218 20.7567 49.9696 20.37 49.9 19.9646C49.9 19.7646 49.9 19.6746 50.17 19.6746H51.85C51.9213 19.677 51.9905 19.7001 52.049 19.7409C52.1076 19.7817 52.1531 19.8385 52.18 19.9046C52.289 20.2083 52.5062 20.4612 52.79 20.6146C53.1359 20.7931 53.5209 20.8825 53.91 20.8746C54.1448 20.8875 54.3798 20.8534 54.6013 20.7744C54.8228 20.6955 55.0263 20.5731 55.2 20.4146C55.3587 20.2488 55.4821 20.0525 55.5629 19.8377C55.6437 19.6229 55.6801 19.3939 55.67 19.1646V18.5346C55.0685 18.977 54.3364 19.2058 53.59 19.1846C53.0676 19.2036 52.5468 19.1169 52.0587 18.9296C51.5707 18.7422 51.1256 18.4583 50.75 18.0946C50.0291 17.3488 49.6261 16.352 49.6261 15.3146C49.6261 14.2773 50.0291 13.2805 50.75 12.5346C51.1274 12.1742 51.5731 11.893 52.0608 11.7075C52.5486 11.522 53.0685 11.436 53.59 11.4546C54.358 11.4343 55.1098 11.6779 55.72 12.1446V11.9846C55.7154 11.9463 55.7194 11.9074 55.7317 11.8708C55.744 11.8343 55.7643 11.8009 55.7911 11.7731C55.8179 11.7453 55.8506 11.7239 55.8867 11.7103C55.9229 11.6967 55.9616 11.6914 56 11.6946L57.66 11.6846ZM53.78 17.4046C54.0376 17.4126 54.2939 17.3639 54.5306 17.2619C54.7673 17.16 54.9788 17.0073 55.15 16.8146C55.4825 16.3853 55.6629 15.8576 55.6629 15.3146C55.6629 14.7716 55.4825 14.244 55.15 13.8146C54.9794 13.6246 54.7692 13.4741 54.5343 13.3739C54.2993 13.2737 54.0453 13.2262 53.79 13.2346C53.5294 13.2264 53.2702 13.2749 53.0302 13.3768C52.7902 13.4787 52.5752 13.6315 52.4 13.8246C52.0317 14.2353 51.838 14.7734 51.86 15.3246C51.842 15.8704 52.0314 16.4028 52.39 16.8146C52.5656 17.0072 52.7807 17.1597 53.0206 17.2615C53.2605 17.3633 53.5195 17.4121 53.78 17.4046Z" fill="white"/>
<path d="M66.57 18.1348C65.7242 18.8287 64.664 19.2079 63.57 19.2079C62.476 19.2079 61.4158 18.8287 60.57 18.1348C59.8445 17.3772 59.4395 16.3688 59.4395 15.3198C59.4395 14.2709 59.8445 13.2624 60.57 12.5048C61.4166 11.8127 62.4765 11.4346 63.57 11.4346C64.6635 11.4346 65.7234 11.8127 66.57 12.5048C67.2949 13.2607 67.6996 14.2675 67.6996 15.3148C67.6996 16.3621 67.2949 17.3689 66.57 18.1248V18.1348ZM62.14 16.8148C62.3317 16.9972 62.5577 17.1397 62.8049 17.2341C63.0521 17.3285 63.3155 17.373 63.58 17.3648C63.8428 17.3716 64.1044 17.3266 64.3498 17.2322C64.5952 17.1378 64.8195 16.996 65.01 16.8148C65.3588 16.4044 65.5503 15.8834 65.5503 15.3448C65.5503 14.8062 65.3588 14.2852 65.01 13.8748C64.8195 13.6937 64.5952 13.5518 64.3498 13.4575C64.1044 13.3631 63.8428 13.318 63.58 13.3248C63.3155 13.3167 63.0521 13.3611 62.8049 13.4555C62.5577 13.5499 62.3317 13.6925 62.14 13.8748C61.7913 14.2852 61.5998 14.8062 61.5998 15.3448C61.5998 15.8834 61.7913 16.4044 62.14 16.8148Z" fill="white"/>
<path d="M71.31 9.9843C71.0457 10.2157 70.7063 10.3432 70.355 10.3432C70.0037 10.3432 69.6644 10.2157 69.4 9.9843C69.2802 9.8712 69.1847 9.7348 69.1194 9.5835C69.0542 9.4322 69.0205 9.2691 69.0205 9.1043C69.0205 8.9395 69.0542 8.7765 69.1194 8.6251C69.1847 8.4738 69.2802 8.3374 69.4 8.2243C69.6671 7.9987 70.0054 7.875 70.355 7.875C70.7046 7.875 71.0429 7.9987 71.31 8.2243C71.4299 8.3374 71.5254 8.4738 71.5906 8.6251C71.6559 8.7765 71.6895 8.9395 71.6895 9.1043C71.6895 9.2691 71.6559 9.4322 71.5906 9.5835C71.5254 9.7348 71.4299 9.8712 71.31 9.9843ZM71.52 19.2043C70.9256 19.2335 70.3383 19.0647 69.85 18.7243C69.6497 18.5713 69.4888 18.3725 69.381 18.1446C69.2731 17.9167 69.2213 17.6663 69.23 17.4143V11.9743C69.2252 11.9351 69.2293 11.8952 69.2422 11.8578C69.255 11.8204 69.2762 11.7865 69.3042 11.7585C69.3322 11.7305 69.3661 11.7093 69.4035 11.6965C69.4409 11.6836 69.4808 11.6795 69.52 11.6843H71.2C71.39 11.6843 71.48 11.7843 71.48 11.9743V16.6943C71.48 17.0743 71.65 17.2643 71.99 17.2643C72.1417 17.2698 72.2933 17.2529 72.44 17.2143C72.64 17.2143 72.75 17.2743 72.76 17.4543L72.91 18.7043C72.9172 18.7408 72.9165 18.7783 72.908 18.8145C72.8995 18.8506 72.8833 18.8846 72.8605 18.9139C72.8378 18.9433 72.809 18.9675 72.7762 18.9848C72.7433 19.0021 72.7071 19.0122 72.67 19.0143C72.2988 19.1366 71.9109 19.2007 71.52 19.2043Z" fill="white"/>
<path d="M79.09 11.4447C79.6148 11.424 80.1383 11.5089 80.6296 11.6944C81.1209 11.88 81.57 12.1623 81.95 12.5247C82.6572 13.2837 83.0504 14.2824 83.0504 15.3197C83.0504 16.357 82.6572 17.3558 81.95 18.1147C81.5718 18.4804 81.1233 18.7655 80.6317 18.9528C80.1401 19.1402 79.6157 19.2259 79.09 19.2047C78.3412 19.2214 77.6073 18.9932 77 18.5547V22.1647C77 22.3547 76.9 22.4447 76.71 22.4447H75.03C74.9917 22.4519 74.9522 22.4496 74.9149 22.4381C74.8777 22.4265 74.8438 22.4061 74.8162 22.3785C74.7887 22.3509 74.7682 22.3171 74.7567 22.2798C74.7451 22.2426 74.7429 22.2031 74.75 22.1647V13.9647C74.7618 13.8845 74.7546 13.8027 74.7292 13.7257C74.7037 13.6488 74.6605 13.5788 74.6032 13.5215C74.5459 13.4642 74.476 13.4211 74.399 13.3956C74.3221 13.3701 74.2402 13.363 74.16 13.3747H73.83C73.61 13.3747 73.5 13.2947 73.5 13.1347V11.9547C73.4948 11.8817 73.5148 11.8091 73.5567 11.7491C73.5985 11.689 73.6597 11.6451 73.73 11.6247C74.0759 11.499 74.442 11.438 74.81 11.4447C75.177 11.4122 75.5453 11.4901 75.8678 11.6682C76.1902 11.8464 76.4522 12.1168 76.62 12.4447C76.9421 12.1189 77.3273 11.8622 77.752 11.6902C78.1767 11.5183 78.632 11.4347 79.09 11.4447ZM77.53 16.8147C77.7083 17.0011 77.9225 17.1494 78.1597 17.2507C78.3969 17.352 78.6521 17.4042 78.91 17.4042C79.1679 17.4042 79.4232 17.352 79.6603 17.2507C79.8975 17.1494 80.1117 17.0011 80.29 16.8147C80.6656 16.3958 80.8629 15.8469 80.84 15.2847C80.8662 14.7221 80.6684 14.1719 80.29 13.7547C80.1117 13.5684 79.8975 13.4201 79.6603 13.3188C79.4232 13.2174 79.1679 13.1652 78.91 13.1652C78.6521 13.1652 78.3969 13.2174 78.1597 13.3188C77.9225 13.4201 77.7083 13.5684 77.53 13.7547C77.1662 14.1793 76.9768 14.726 77 15.2847C76.9797 15.843 77.1688 16.3887 77.53 16.8147Z" fill="white"/>
<path d="M87.77 19.2046C86.8723 19.2415 85.9822 19.0268 85.2 18.5846C84.8862 18.3956 84.619 18.1383 84.4181 17.8319C84.2173 17.5255 84.0881 17.1778 84.04 16.8146C84.04 16.6146 84.11 16.5146 84.33 16.5146H85.8C85.8699 16.5174 85.9378 16.5393 85.996 16.5782C86.0542 16.617 86.1006 16.6711 86.13 16.7346C86.34 17.2746 86.89 17.5446 87.77 17.5446C88.077 17.5587 88.3826 17.4968 88.66 17.3646C88.7558 17.3214 88.8379 17.253 88.8978 17.1667C88.9577 17.0804 88.993 16.9794 89 16.8746C89 16.6146 88.84 16.4346 88.52 16.3146C88.1405 16.1883 87.7481 16.1044 87.35 16.0646C86.8785 16.0112 86.4109 15.9277 85.95 15.8146C85.5018 15.7132 85.0943 15.4798 84.78 15.1446C84.5949 14.9168 84.4587 14.6533 84.3797 14.3706C84.3008 14.0879 84.2809 13.7919 84.3212 13.5012C84.3616 13.2104 84.4613 12.931 84.6142 12.6805C84.7671 12.4299 84.9699 12.2135 85.21 12.0446C85.9308 11.5855 86.7765 11.3618 87.63 11.4046C88.4564 11.3767 89.274 11.5811 89.99 11.9946C90.2786 12.1581 90.527 12.3838 90.7173 12.6554C90.9076 12.927 91.0349 13.2376 91.09 13.5646C91.09 13.7646 91 13.8646 90.82 13.8646H89.34C89.2777 13.8683 89.2157 13.8531 89.1622 13.821C89.1087 13.7889 89.0661 13.7413 89.04 13.6846C88.9411 13.4478 88.7549 13.258 88.52 13.1546C88.255 13.016 87.959 12.9471 87.66 12.9546C87.3669 12.9387 87.0745 12.9972 86.81 13.1246C86.7168 13.1606 86.6366 13.2236 86.5795 13.3056C86.5225 13.3876 86.4913 13.4848 86.49 13.5846C86.4964 13.7214 86.5465 13.8525 86.6329 13.9587C86.7193 14.0649 86.8374 14.1405 86.97 14.1746C87.354 14.3194 87.7533 14.42 88.16 14.4746C88.6277 14.5362 89.0917 14.623 89.55 14.7346C89.9982 14.8361 90.4057 15.0694 90.72 15.4046C90.8882 15.5893 91.018 15.8054 91.1021 16.0406C91.1862 16.2757 91.2229 16.5252 91.21 16.7746C91.2186 17.1203 91.1375 17.4623 90.9745 17.7673C90.8115 18.0722 90.5722 18.3297 90.28 18.5146C89.5329 18.9943 88.6574 19.2349 87.77 19.2046Z" fill="white"/>
<path d="M101.78 18.7046C101.786 18.7401 101.784 18.7764 101.776 18.8113C101.767 18.8463 101.752 18.8791 101.73 18.908C101.709 18.9369 101.682 18.9612 101.651 18.9795C101.62 18.9978 101.586 19.0097 101.55 19.0146C101.185 19.1338 100.804 19.1979 100.42 19.2046C100.04 19.244 99.656 19.1846 99.306 19.0322C98.955 18.8798 98.65 18.6395 98.42 18.3346C97.714 18.9419 96.8 19.2535 95.87 19.2046C95.438 19.2245 95.007 19.1538 94.604 18.9971C94.201 18.8404 93.835 18.6011 93.53 18.2946C93.227 17.9735 92.9922 17.5945 92.8392 17.1804C92.6863 16.7663 92.6186 16.3256 92.64 15.8846V11.9746C92.64 11.7846 92.73 11.6846 92.92 11.6846H94.6C94.79 11.6846 94.88 11.7846 94.88 11.9746V15.5846C94.862 16.0344 95.015 16.4742 95.31 16.8146C95.457 16.9706 95.636 17.0932 95.834 17.1743C96.032 17.2554 96.246 17.293 96.46 17.2846C96.679 17.2942 96.898 17.2603 97.104 17.1847C97.31 17.1092 97.499 16.9936 97.66 16.8446C97.812 16.6876 97.931 16.501 98.008 16.2963C98.086 16.0916 98.12 15.8732 98.11 15.6546V11.9746C98.11 11.7846 98.2 11.6846 98.39 11.6846H100.09C100.28 11.6846 100.37 11.7846 100.37 11.9746V16.6846C100.37 17.0746 100.54 17.2646 100.87 17.2646C101.025 17.2706 101.18 17.2538 101.33 17.2146C101.368 17.204 101.408 17.2021 101.446 17.2091C101.485 17.216 101.521 17.2316 101.553 17.2547C101.585 17.2778 101.611 17.3078 101.63 17.3424C101.648 17.377 101.658 17.4154 101.66 17.4546L101.78 18.7046Z" fill="white"/>
<path d="M117.67 18.7043C117.679 18.7401 117.68 18.7775 117.673 18.8137C117.665 18.8498 117.65 18.884 117.628 18.9136C117.606 18.9432 117.578 18.9676 117.545 18.985C117.513 19.0025 117.477 19.0125 117.44 19.0143C117.068 19.1352 116.681 19.1993 116.29 19.2043C115.695 19.235 115.108 19.0661 114.62 18.7243C114.409 18.5779 114.238 18.3818 114.121 18.1533C114.004 17.9248 113.945 17.6709 113.95 17.4143V15.0643C113.971 14.6159 113.821 14.1762 113.53 13.8343C113.39 13.678 113.216 13.5548 113.023 13.4735C112.829 13.3923 112.62 13.355 112.41 13.3643C112.221 13.3572 112.033 13.3931 111.859 13.4693C111.686 13.5455 111.533 13.6601 111.41 13.8043C111.146 14.1394 111.011 14.5582 111.03 14.9843V18.6743C111.03 18.8643 110.94 18.9643 110.75 18.9643H109.06C109.021 18.9692 108.981 18.965 108.944 18.9522C108.906 18.9393 108.872 18.9181 108.844 18.8901C108.816 18.8622 108.795 18.8282 108.782 18.7908C108.769 18.7534 108.765 18.7136 108.77 18.6743V15.0643C108.792 14.6208 108.653 14.1842 108.38 13.8343C108.258 13.6873 108.105 13.569 107.932 13.4878C107.76 13.4066 107.571 13.3644 107.38 13.3643C107.176 13.3561 106.973 13.391 106.783 13.4669C106.593 13.5427 106.422 13.6577 106.28 13.8043C105.994 14.1287 105.847 14.5525 105.87 14.9843V18.6743C105.875 18.7136 105.871 18.7534 105.858 18.7908C105.845 18.8282 105.824 18.8622 105.796 18.8901C105.768 18.9181 105.734 18.9393 105.697 18.9522C105.659 18.965 105.619 18.9692 105.58 18.9643H103.95C103.76 18.9643 103.67 18.8643 103.67 18.6743V13.9643C103.682 13.8841 103.675 13.8023 103.649 13.7253C103.624 13.6484 103.581 13.5784 103.523 13.5211C103.466 13.4638 103.396 13.4207 103.319 13.3952C103.242 13.3697 103.16 13.3626 103.08 13.3743H102.75C102.53 13.3743 102.42 13.2943 102.42 13.1343V11.9543C102.415 11.8813 102.435 11.8087 102.477 11.7487C102.519 11.6886 102.58 11.6447 102.65 11.6243C102.996 11.4986 103.362 11.4376 103.73 11.4443C104.083 11.4142 104.438 11.4846 104.753 11.6474C105.068 11.8102 105.33 12.0587 105.51 12.3643C105.847 12.0446 106.247 11.7978 106.684 11.6395C107.121 11.4812 107.586 11.4148 108.05 11.4443C108.501 11.4223 108.95 11.5068 109.362 11.691C109.774 11.8752 110.136 12.1538 110.42 12.5043C110.751 12.1446 111.158 11.863 111.611 11.6796C112.064 11.4963 112.552 11.416 113.04 11.4443C113.476 11.4239 113.912 11.4942 114.32 11.6509C114.728 11.8075 115.099 12.047 115.41 12.3543C115.714 12.6748 115.949 13.0537 116.102 13.468C116.255 13.8822 116.323 14.3233 116.3 14.7643V16.6943C116.3 17.0743 116.47 17.2643 116.79 17.2643C116.945 17.2715 117.1 17.2547 117.25 17.2143C117.457 17.2143 117.567 17.2943 117.58 17.4543L117.67 18.7043Z" fill="white"/>
<path d="M0.41 10.3847C1.14777 7.4194 2.85643 4.7861 5.2639 2.90424C7.6714 1.02234 10.6393 0 13.695 0C16.7507 0 19.7186 1.02234 22.1261 2.90424C24.5336 4.7861 26.2422 7.4194 26.98 10.3847H25.78C23.7557 10.3549 21.7729 10.9599 20.11 12.1147C20.014 12.1842 19.9138 12.2477 19.81 12.3047H19.67C19.5662 12.2477 19.466 12.1842 19.37 12.1147C17.6924 10.9866 15.7166 10.3841 13.695 10.3841C11.6734 10.3841 9.6976 10.9866 8.02 12.1147C7.924 12.1842 7.8238 12.2477 7.72 12.3047H7.58C7.4762 12.2477 7.376 12.1842 7.28 12.1147C5.6171 10.9599 3.6343 10.3549 1.61 10.3847H0.41ZM23.62 16.6547C24.236 16.175 24.9995 15.924 25.78 15.9447H27.39V12.7347H25.78C24.4052 12.7181 23.0619 13.146 21.95 13.9547C21.3243 14.416 20.5674 14.6649 19.79 14.6649C19.0126 14.6649 18.2557 14.416 17.63 13.9547C16.4899 13.1611 15.1341 12.7356 13.745 12.7356C12.3559 12.7356 11.0001 13.1611 9.86 13.9547C9.2343 14.416 8.4774 14.6649 7.7 14.6649C6.9226 14.6649 6.1657 14.416 5.54 13.9547C4.4144 13.1356 3.0518 12.7072 1.66 12.7347H0V15.9447H1.61C2.39051 15.924 3.154 16.175 3.77 16.6547C4.908 17.4489 6.2623 17.8747 7.65 17.8747C9.0377 17.8747 10.392 17.4489 11.53 16.6547C12.1468 16.1765 12.9097 15.9257 13.69 15.9447C14.4708 15.9223 15.2348 16.1735 15.85 16.6547C16.9901 17.4484 18.3459 17.8738 19.735 17.8738C21.1241 17.8738 22.4799 17.4484 23.62 16.6547ZM23.62 22.3947C24.236 21.915 24.9995 21.664 25.78 21.6847H27.39V18.4747H25.78C24.4052 18.4581 23.0619 18.886 21.95 19.6947C21.3243 20.156 20.5674 20.4049 19.79 20.4049C19.0126 20.4049 18.2557 20.156 17.63 19.6947C16.4899 18.9011 15.1341 18.4757 13.745 18.4757C12.3559 18.4757 11.0001 18.9011 9.86 19.6947C9.2343 20.156 8.4774 20.4049 7.7 20.4049C6.9226 20.4049 6.1657 20.156 5.54 19.6947C4.4144 18.8757 3.0518 18.4472 1.66 18.4747H0V21.6847H1.61C2.39051 21.664 3.154 21.915 3.77 22.3947C4.908 23.1889 6.2623 23.6147 7.65 23.6147C9.0377 23.6147 10.392 23.1889 11.53 22.3947C12.1468 21.9165 12.9097 21.6657 13.69 21.6847C14.4708 21.6623 15.2348 21.9135 15.85 22.3947C16.9901 23.1884 18.3459 23.6138 19.735 23.6138C21.1241 23.6138 22.4799 23.1884 23.62 22.3947Z" fill="white"/>
</svg>
