<svg width="130" height="30" viewBox="0 0 130 30" fill="none" xmlns="http://www.w3.org/2000/svg">
<path d="M13.45 4.65039V0.400391H0.0499878V29.6004H13.45V25.3504C10.705 25.3504 8.07239 24.2599 6.13143 22.3189C4.19043 20.3779 3.09999 17.7454 3.09999 15.0004C3.09999 12.2554 4.19043 9.6228 6.13143 7.68184C8.07239 5.74084 10.705 4.65039 13.45 4.65039Z" fill="white"/>
<path d="M13.45 4.65039V25.3504C16.195 25.3504 18.8276 24.2599 20.7686 22.3189C22.7096 20.3779 23.8 17.7454 23.8 15.0004C23.8 12.2554 22.7096 9.6228 20.7686 7.68184C18.8276 5.74084 16.195 4.65039 13.45 4.65039Z" fill="white"/>
<path d="M31.32 7.25H34.32V21.7H31.32V7.25Z" fill="white"/>
<path d="M36 16.7509C36 15.7113 36.3087 14.6951 36.8869 13.8311C37.4651 12.9671 38.2868 12.2942 39.2479 11.8977C40.209 11.5013 41.2661 11.3991 42.2853 11.6041C43.3045 11.8091 44.2399 12.3121 44.9729 13.0493C45.7059 13.7866 46.2036 14.7248 46.4028 15.7452C46.6019 16.7656 46.4937 17.8221 46.0917 18.7809C45.6897 19.7396 45.0122 20.5575 44.1449 21.1307C43.2776 21.704 42.2596 22.0068 41.22 22.0009C40.5305 22.0063 39.8468 21.874 39.2091 21.6116C38.5714 21.3493 37.9924 20.9623 37.5062 20.4734C37.02 19.9844 36.6364 19.4032 36.3777 18.764C36.1191 18.1248 35.9907 17.4404 36 16.7509ZM43.52 16.7509C43.5082 16.3027 43.3645 15.8679 43.1069 15.501C42.8493 15.134 42.4893 14.8511 42.0717 14.6877C41.6542 14.5243 41.1978 14.4876 40.7596 14.5823C40.3213 14.6769 39.9207 14.8986 39.6078 15.2198C39.2949 15.5409 39.0836 15.9471 39.0004 16.3877C38.9172 16.8283 38.9657 17.2836 39.1399 17.6967C39.3141 18.1098 39.6062 18.4625 39.9798 18.7104C40.3533 18.9584 40.7916 19.0907 41.24 19.0909C41.5453 19.0969 41.8485 19.0398 42.1307 18.9232C42.4129 18.8067 42.668 18.6332 42.8801 18.4136C43.0922 18.194 43.2567 17.9329 43.3634 17.6469C43.4701 17.3608 43.5166 17.0558 43.5 16.7509H43.52Z" fill="white"/>
<path d="M58.31 11.8001V21.2101C58.31 24.5301 55.71 25.9401 53.08 25.9401C52.1523 26.0162 51.2218 25.8319 50.3933 25.4079C49.5647 24.9839 48.8709 24.337 48.39 23.5401L50.92 22.0801C51.125 22.4935 51.4511 22.8345 51.8549 23.0578C52.2587 23.2811 52.7209 23.3761 53.18 23.3301C53.4725 23.3661 53.7693 23.3371 54.0492 23.2451C54.3292 23.153 54.5853 23.0003 54.7993 22.7977C55.0134 22.5951 55.18 22.3478 55.2873 22.0733C55.3946 21.7989 55.4399 21.5041 55.42 21.2101V20.3001C55.0709 20.7234 54.6279 21.0594 54.1263 21.2816C53.6246 21.5038 53.0781 21.606 52.53 21.5801C51.2039 21.5801 49.9322 21.0533 48.9945 20.1156C48.0568 19.178 47.53 17.9062 47.53 16.5801C47.53 15.254 48.0568 13.9823 48.9945 13.0446C49.9322 12.1069 51.2039 11.5801 52.53 11.5801C53.0781 11.5542 53.6246 11.6564 54.1263 11.8786C54.6279 12.1008 55.0709 12.4368 55.42 12.8601V11.8601L58.31 11.8001ZM55.42 16.5501C55.4399 16.0717 55.3163 15.5982 55.065 15.1906C54.8137 14.783 54.4463 14.4599 54.0098 14.2628C53.5734 14.0657 53.0881 14.0037 52.6161 14.0847C52.1442 14.1657 51.7072 14.386 51.3615 14.7173C51.0158 15.0486 50.7771 15.4758 50.6761 15.9439C50.5751 16.412 50.6164 16.8995 50.7947 17.3439C50.9731 17.7883 51.2803 18.1692 51.6768 18.4376C52.0734 18.706 52.5412 18.8497 53.02 18.8501C53.3325 18.8726 53.6462 18.8293 53.9408 18.7231C54.2355 18.6168 54.5047 18.4499 54.7308 18.2331C54.957 18.0164 55.1352 17.7546 55.2539 17.4647C55.3726 17.1748 55.4292 16.8632 55.42 16.5501Z" fill="white"/>
<path d="M60 16.75C60 15.7112 60.3082 14.6958 60.8855 13.8322C61.4628 12.9686 62.2833 12.2957 63.2432 11.8987C64.2031 11.5016 65.2592 11.3982 66.2779 11.6016C67.2966 11.805 68.232 12.306 68.9659 13.0412C69.6997 13.7765 70.1989 14.7129 70.4003 15.7319C70.6018 16.751 70.4964 17.8069 70.0975 18.766C69.6986 19.7252 69.0241 20.5444 68.1595 21.1201C67.2948 21.6958 66.2788 22.002 65.24 22C64.5492 22.0067 63.8639 21.8754 63.2245 21.6138C62.5851 21.3522 62.0043 20.9656 61.5163 20.4766C61.0282 19.9876 60.6427 19.4061 60.3823 18.7662C60.122 18.1263 59.992 17.4408 60 16.75ZM67.52 16.75C67.5082 16.3014 67.3642 15.8662 67.1062 15.499C66.8482 15.1319 66.4875 14.849 66.0694 14.6859C65.6513 14.5228 65.1944 14.4867 64.7559 14.5822C64.3174 14.6776 63.9168 14.9004 63.6043 15.2225C63.2918 15.5446 63.0813 15.9518 62.9993 16.393C62.9172 16.8342 62.9671 17.2898 63.1428 17.7027C63.3185 18.1157 63.6122 18.4676 63.9871 18.7144C64.3619 18.9611 64.8012 19.0918 65.25 19.09C65.5553 19.096 65.8585 19.0389 66.1407 18.9223C66.4229 18.8058 66.678 18.6323 66.8901 18.4127C67.1022 18.1931 67.2667 17.932 67.3734 17.646C67.4801 17.3599 67.5266 17.0549 67.51 16.75H67.52Z" fill="white"/>
<path d="M71.87 9.15012C71.87 8.79812 71.9744 8.45392 72.17 8.16122C72.3656 7.86848 72.6436 7.64034 72.9688 7.50561C73.2941 7.37089 73.652 7.33564 73.9973 7.40432C74.3425 7.473 74.6597 7.64253 74.9087 7.89147C75.1576 8.14042 75.3271 8.45762 75.3958 8.80282C75.4645 9.14812 75.4292 9.50602 75.2945 9.83132C75.1598 10.1565 74.9316 10.4345 74.6389 10.6301C74.3462 10.8257 74.0021 10.9301 73.65 10.9301C73.1795 10.9249 72.7298 10.7357 72.3971 10.403C72.0644 10.0703 71.8752 9.62062 71.87 9.15012ZM72.16 11.8001H75.16V21.7001H72.16V11.8001Z" fill="white"/>
<path d="M88 16.7506C88.0336 17.409 87.9367 18.0676 87.7148 18.6884C87.493 19.3092 87.1505 19.88 86.7072 20.3679C86.2638 20.8559 85.7284 21.2513 85.1316 21.5315C84.5349 21.8117 83.8886 21.9711 83.23 22.0006C82.6711 22.0378 82.111 21.9483 81.5916 21.7388C81.0721 21.5292 80.6067 21.2051 80.23 20.7906V25.6806H77.23V11.8006H80.23V12.7306C80.6072 12.3173 81.073 11.9947 81.5925 11.7869C82.112 11.579 82.6718 11.4914 83.23 11.5306C83.886 11.5601 84.5297 11.7186 85.1244 11.9969C85.7191 12.2752 86.2532 12.668 86.6961 13.1527C87.1391 13.6374 87.4822 14.2046 87.7059 14.822C87.9296 15.4393 88.0296 16.0946 88 16.7506ZM85 16.7506C84.9882 16.2861 84.8395 15.8355 84.5727 15.4552C84.3059 15.0749 83.9327 14.7817 83.5 14.6126C83.0673 14.4434 82.5943 14.4058 82.1402 14.5043C81.6862 14.6028 81.2714 14.8332 80.9477 15.1665C80.624 15.4998 80.4059 15.9212 80.3208 16.378C80.2356 16.8347 80.2871 17.3064 80.4689 17.734C80.6507 18.1615 80.9546 18.5259 81.3426 18.7815C81.7306 19.0371 82.1854 19.1724 82.65 19.1706C82.9682 19.1841 83.2857 19.1302 83.5816 19.0124C83.8776 18.8946 84.1453 18.7156 84.3672 18.4871C84.5891 18.2586 84.7601 17.9857 84.8692 17.6865C84.9783 17.3872 85.0228 17.0683 85 16.7506Z" fill="white"/>
<path d="M97.13 18.7307C97.13 21.0107 95.13 21.9807 93.01 21.9807C92.1453 22.0585 91.2772 21.8752 90.5178 21.4545C89.7584 21.0338 89.1426 20.395 88.75 19.6207L91.33 18.1607C91.4322 18.5175 91.6538 18.8284 91.9578 19.0414C92.2618 19.2544 92.6297 19.3565 93 19.3307C93.71 19.3307 94.07 19.1107 94.07 18.7107C94.07 17.6207 89.2 18.2007 89.2 14.7707C89.2 12.6107 91.02 11.5307 93.08 11.5307C93.863 11.4956 94.641 11.6733 95.3311 12.0448C96.0213 12.4163 96.598 12.9678 97 13.6407L94.42 15.0007C94.306 14.7427 94.1198 14.5233 93.8838 14.3689C93.6477 14.2145 93.372 14.1318 93.09 14.1307C92.57 14.1307 92.26 14.3307 92.26 14.6807C92.26 15.8207 97.13 15.0707 97.13 18.7307Z" fill="white"/>
<path d="M108 11.8008V21.7008H105V20.7708C104.659 21.1825 104.226 21.5082 103.737 21.7219C103.247 21.9356 102.714 22.0311 102.18 22.0008C100.18 22.0008 98.47 20.5708 98.47 17.9008V11.8008H101.47V17.4508C101.446 17.687 101.474 17.9255 101.552 18.1499C101.63 18.3742 101.755 18.579 101.919 18.7502C102.084 18.9213 102.284 19.0547 102.505 19.1412C102.726 19.2276 102.963 19.265 103.2 19.2508C104.28 19.2508 105.04 18.6108 105.04 17.2508V11.8008H108Z" fill="white"/>
<path d="M125 15.6207V21.7007H122V15.8807C122 14.8807 121.53 14.2607 120.58 14.2607C119.63 14.2607 119.03 14.9507 119.03 16.1207V21.7007H116.03V15.8807C116.03 14.8807 115.56 14.2607 114.61 14.2607C113.66 14.2607 113.06 14.9507 113.06 16.1207V21.7007H110.06V11.8007H113.06V12.7107C113.371 12.3087 113.776 11.9903 114.241 11.7843C114.705 11.5783 115.214 11.4911 115.72 11.5307C116.227 11.5042 116.733 11.6102 117.187 11.8381C117.641 12.066 118.028 12.4081 118.31 12.8307C118.64 12.3891 119.076 12.0383 119.578 11.811C120.079 11.5836 120.631 11.4872 121.18 11.5307C123.52 11.5307 125 13.1507 125 15.6207Z" fill="white"/>
<path d="M127.52 11.7408C128.735 11.7408 129.72 10.7558 129.72 9.54082C129.72 8.32582 128.735 7.34082 127.52 7.34082C126.305 7.34082 125.32 8.32582 125.32 9.54082C125.32 10.7558 126.305 11.7408 127.52 11.7408Z" fill="white"/>
</svg>
