<svg width="128" height="34" viewBox="0 0 128 34" fill="none" xmlns="http://www.w3.org/2000/svg">
<path d="M21.23 8.38977H23.23V22.3098H29.23V24.3098H21.23V8.38977ZM35.46 8.38977C36.6467 8.38977 37.8067 8.74167 38.7934 9.40097C39.7801 10.0603 40.5492 10.9973 41.0033 12.0937C41.4574 13.1901 41.5762 14.3965 41.3447 15.5603C41.1132 16.7242 40.5418 17.7933 39.7026 18.6324C38.8635 19.4716 37.7944 20.043 36.6305 20.2745C35.4667 20.506 34.2603 20.3872 33.1639 19.9331C32.0675 19.4789 31.1305 18.7099 30.4712 17.7232C29.8119 16.7365 29.46 15.5765 29.46 14.3898C29.46 13.6019 29.6152 12.8216 29.9167 12.0937C30.2182 11.3657 30.6602 10.7043 31.2174 10.1472C31.7745 9.58997 32.4359 9.14797 33.1639 8.84647C33.8918 8.54497 34.6721 8.38977 35.46 8.38977ZM35.46 18.3898C36.2511 18.3898 37.0245 18.1552 37.6823 17.7157C38.3401 17.2761 38.8528 16.6514 39.1555 15.9205C39.4583 15.1896 39.5375 14.3854 39.3831 13.6094C39.2288 12.8335 38.8478 12.1208 38.2884 11.5614C37.729 11.002 37.0163 10.621 36.2404 10.4667C35.4644 10.3123 34.6602 10.3915 33.9293 10.6943C33.1984 10.997 32.5736 11.5097 32.1341 12.1675C31.6946 12.8253 31.46 13.5987 31.46 14.3898C31.4653 15.4472 31.889 16.4595 32.6386 17.2053C33.3882 17.9511 34.4026 18.3698 35.46 18.3698V18.3898ZM31.46 22.3298H39.46V24.3298H31.46V22.3298ZM57.06 24.3298H55.06V22.8998C53.7702 23.8026 52.2344 24.2878 50.66 24.2898C49.3175 24.2988 47.9943 23.9698 46.8124 23.3331C45.6304 22.6963 44.6277 21.7724 43.8967 20.6464C43.1656 19.5204 42.7296 18.2285 42.629 16.8897C42.5283 15.551 42.7662 14.2084 43.3207 12.9858C43.8752 11.7631 44.7285 10.6996 45.8019 9.89337C46.8754 9.08707 48.1345 8.56387 49.4632 8.37207C50.792 8.18017 52.1477 8.32587 53.4053 8.79557C54.663 9.26527 55.7823 10.0439 56.66 11.0598L55.19 12.3698C54.5224 11.6234 53.6787 11.056 52.7356 10.7193C51.7926 10.3825 50.7803 10.2871 49.791 10.4418C48.8016 10.5965 47.8668 10.9964 47.0715 11.6049C46.2763 12.2135 45.646 13.0113 45.2382 13.9259C44.8303 14.8404 44.6578 15.8424 44.7364 16.8407C44.815 17.839 45.1421 18.8017 45.6881 19.6411C46.2341 20.4805 46.9814 21.17 47.8621 21.6466C48.7427 22.1232 49.7287 22.3718 50.73 22.3698C51.561 22.3715 52.3826 22.1937 53.1386 21.8485C53.8945 21.5033 54.567 20.9989 55.11 20.3698H49.71V18.3698H57.08L57.06 24.3298ZM64.42 8.42977C65.6067 8.42977 66.7667 8.78167 67.7534 9.44097C68.7401 10.1003 69.5092 11.0373 69.9633 12.1337C70.4174 13.2301 70.5362 14.4365 70.3047 15.6003C70.0732 16.7642 69.5018 17.8333 68.6626 18.6724C67.8235 19.5116 66.7544 20.083 65.5905 20.3145C64.4267 20.546 63.2203 20.4272 62.1239 19.9731C61.0275 19.5189 60.0905 18.7499 59.4312 17.7632C58.7719 16.7765 58.42 15.6165 58.42 14.4298C58.4147 13.6368 58.5667 12.8507 58.8671 12.1168C59.1675 11.3829 59.6104 10.7158 60.1702 10.1542C60.73 9.59247 61.3956 9.14737 62.1285 8.84447C62.8614 8.54167 63.647 8.38707 64.44 8.38977L64.42 8.42977ZM64.42 18.4298C65.2111 18.4298 65.9845 18.1952 66.6423 17.7557C67.3001 17.3161 67.8128 16.6914 68.1155 15.9605C68.4183 15.2296 68.4975 14.4254 68.3431 13.6494C68.1888 12.8735 67.8078 12.1608 67.2484 11.6014C66.689 11.042 65.9763 10.661 65.2004 10.5067C64.4244 10.3523 63.6202 10.4315 62.8893 10.7343C62.1584 11.037 61.5336 11.5497 61.0941 12.2075C60.6546 12.8653 60.42 13.6387 60.42 14.4298C60.4358 15.4837 60.8669 16.4888 61.6197 17.2266C62.3724 17.9643 63.386 18.3752 64.44 18.3698L64.42 18.4298ZM60.42 22.3698H68.42V24.3698H60.42V22.3698ZM72.55 8.38977H74.55V24.2898H72.55V8.38977ZM77.32 8.38977H79.32C79.423 8.37887 79.5269 8.37887 79.63 8.38977C80.4676 8.29887 81.315 8.38547 82.1169 8.64377C82.9188 8.90217 83.6574 9.32646 84.2844 9.88916C84.9115 10.4519 85.413 11.1404 85.7563 11.9098C86.0997 12.6792 86.2771 13.5123 86.2771 14.3548C86.2771 15.1973 86.0997 16.0304 85.7563 16.7998C85.413 17.5692 84.9115 18.2577 84.2844 18.8204C83.6574 19.3831 82.9188 19.8074 82.1169 20.0658C81.315 20.3241 80.4676 20.4107 79.63 20.3198H79.32V24.3198H77.32V8.38977ZM79.32 10.3898V18.2998H79.63C80.1949 18.375 80.7693 18.3287 81.3149 18.1638C81.8604 17.999 82.3644 17.7195 82.7931 17.3441C83.2219 16.9687 83.5654 16.506 83.8008 15.987C84.0362 15.468 84.158 14.9047 84.158 14.3348C84.158 13.7649 84.0362 13.2016 83.8008 12.6826C83.5654 12.1636 83.2219 11.7009 82.7931 11.3255C82.3644 10.95 81.8604 10.6706 81.3149 10.5057C80.7693 10.3409 80.1949 10.2946 79.63 10.3698C79.5211 10.3811 79.4137 10.4046 79.31 10.4398L79.32 10.3898ZM93.73 9.53977L92.25 10.7098C91.9947 10.443 91.6685 10.2546 91.3098 10.1668C90.9511 10.079 90.5748 10.0954 90.2251 10.2141C89.8753 10.3327 89.5668 10.5487 89.3356 10.8367C89.1044 11.1247 88.9602 11.4727 88.92 11.8398V11.9998C88.92 12.8798 89.53 13.4698 90.72 13.5498C95.3 13.8298 97.4 15.9798 97.4 18.8198V18.9998C97.2817 20.1238 96.8431 21.1902 96.1363 22.0722C95.4295 22.9542 94.4842 23.6145 93.413 23.9748C92.3417 24.335 91.1895 24.38 90.0934 24.1043C88.9973 23.8287 88.0034 23.244 87.23 22.4198L88.76 21.2398C89.1161 21.6215 89.551 21.9211 90.0345 22.118C90.518 22.3148 91.0385 22.4042 91.56 22.3798C92.5232 22.4306 93.4687 22.1073 94.1991 21.4774C94.9296 20.8476 95.3885 19.9599 95.48 18.9998V18.8598C95.48 16.1898 92.86 15.6998 90.59 15.4798C88.49 15.2798 86.98 13.9698 86.98 12.0798V11.9998C87.054 11.0158 87.5031 10.0978 88.2344 9.43537C88.9657 8.77287 89.9235 8.41646 90.91 8.43976C91.4328 8.42436 91.9529 8.51867 92.437 8.71677C92.921 8.91487 93.3581 9.21227 93.72 9.58977L93.73 9.53977ZM105.23 22.2598C107.72 22.2598 109.69 19.5698 109.69 16.2598V8.25977H111.69V16.2598C111.69 20.6598 108.81 24.2098 105.27 24.2098C101.73 24.2098 98.85 20.6598 98.85 16.2598V8.25977H100.85V16.2598C100.77 19.6198 102.74 22.3098 105.22 22.3098L105.23 22.2598ZM127.04 24.2598H125.04V14.3598L120.43 20.3598L115.82 14.3598V24.2898H113.82V8.38977L120.42 17.0798L127.02 8.38977L127.04 24.2598Z" fill="white"/>
<path d="M11.63 5.99957C11.63 4.55679 11.0569 3.1731 10.0367 2.15291C9.0165 1.13271 7.63278 0.55957 6.19 0.55957C4.74722 0.55957 3.36354 1.13271 2.34334 2.15291C1.32314 3.1731 0.75 4.55679 0.75 5.99957V22.4496L5.23 25.6596V33.4796H7.15V25.6596L11.63 22.4496V5.99957ZM9.71 15.1996L7.15 17.7596V15.3596L9.71 12.7996V15.1996ZM2.71 12.7996L5.27 15.3596V17.7596L2.71 15.1996V12.7996ZM9.71 10.0796L6.19 13.5996L2.67 9.99957V7.59957L6.19 11.1196L9.71 7.59957V10.0796ZM6.19 2.47957C6.96415 2.48299 7.71583 2.7401 8.3299 3.2115C8.944 3.6829 9.3866 4.3426 9.59 5.08957L6.19 8.47957L2.79 5.08957C2.98594 4.33517 3.42537 3.66652 4.04013 3.18738C4.65489 2.70823 5.41059 2.44536 6.19 2.43956V2.47957ZM2.67 21.4796V17.8796L5.23 20.4396V23.2996L2.67 21.4796ZM7.15 23.3096V20.4396L9.71 17.8796V21.4696L7.15 23.3096Z" fill="white"/>
</svg>
